<svg version="1.1" id="Layer_1" xmlns="http://www.w3.org/2000/svg" xmlns:xlink="http://www.w3.org/1999/xlink" x="0px" y="0px"
	 width="100%" viewBox="0 0 250 250" enable-background="new 0 0 250 250" xml:space="preserve">
<path fill="#000000" opacity="1.000000" stroke="none" 
	d="
M144.000000,251.000000 
	C96.000000,251.000000 48.500004,251.000000 1.000006,251.000000 
	C1.000004,167.666672 1.000004,84.333351 1.000002,1.000018 
	C84.333321,1.000012 167.666641,1.000012 250.999969,1.000006 
	C250.999969,84.333321 250.999969,167.666641 250.999985,250.999969 
	C215.500000,251.000000 180.000000,251.000000 144.000000,251.000000 
M125.323822,57.887089 
	C123.215782,56.592281 121.107735,55.297474 118.424080,53.513973 
	C114.696579,53.170670 110.869576,52.122501 107.262436,52.631767 
	C99.905022,53.670486 92.733627,57.191719 85.225410,53.320518 
	C84.668892,53.033581 83.860207,52.898304 83.272415,53.062847 
	C78.563416,54.381023 75.249603,51.813347 71.565414,49.469120 
	C60.643665,42.519680 48.290459,46.206356 42.605648,57.817867 
	C41.526196,60.022701 40.564926,62.285404 39.459415,64.718872 
	C37.708633,64.236603 36.271660,63.894505 34.868809,63.445740 
	C24.646406,60.175663 16.718838,64.040192 13.128899,74.132835 
	C10.785001,80.722397 11.810061,86.974213 15.536716,92.742584 
	C17.141975,95.227310 17.296616,97.210953 15.131618,99.390030 
	C6.342303,108.236519 12.175325,122.250175 23.207436,125.090103 
	C30.651407,127.006363 31.570435,132.267349 35.289490,138.305908 
	C26.407671,137.915543 18.692942,137.514145 10.973061,137.290939 
	C9.468048,137.247421 7.943017,137.896255 6.427218,138.225739 
	C6.978689,139.673660 7.185784,141.426651 8.146935,142.511658 
	C10.903791,145.623703 13.896242,148.539581 16.930702,151.389206 
	C19.300678,153.614822 19.178839,155.509293 16.864094,157.676514 
	C14.190669,160.179520 11.498503,162.707794 9.178169,165.524673 
	C7.906466,167.068527 7.384453,169.229889 6.524388,171.112793 
	C8.489007,171.740921 10.435817,172.436310 12.427153,172.963531 
	C13.205672,173.169662 14.085640,173.030289 14.916968,172.993378 
	C22.216045,172.669373 29.539673,171.805359 36.806080,172.151093 
	C43.838970,172.485703 50.814835,174.048203 57.808365,175.119568 
	C58.313992,175.197021 58.759369,175.667755 59.302933,175.998291 
	C55.719082,178.122650 52.435955,180.068756 49.152828,182.014862 
	C49.393551,182.740097 49.634270,183.465347 49.874989,184.190582 
	C54.999603,184.190582 60.124218,184.190582 65.248833,184.190582 
	C62.434944,187.705399 59.284599,189.899872 56.672871,192.612869 
	C55.492344,193.839172 54.422607,196.628555 55.041351,197.746140 
	C55.746933,199.020523 58.460690,199.919296 60.177685,199.746811 
	C63.944378,199.368439 67.684532,198.388657 71.338844,197.322922 
	C75.049149,196.240860 78.643227,194.760300 82.943703,193.219376 
	C82.522255,194.975189 82.211166,195.880997 82.098763,196.810806 
	C81.724762,199.904556 81.422119,203.006943 81.092125,206.106018 
	C84.441315,205.866333 87.845703,205.913132 91.119553,205.282410 
	C93.170464,204.887283 95.074097,203.559860 96.956444,202.496155 
	C99.942772,200.808609 102.856003,198.991714 106.193138,196.994324 
	C108.583008,203.178726 113.259071,205.208771 118.762276,203.607147 
	C121.700096,202.752151 124.497238,200.201752 126.524170,197.732224 
	C129.124802,194.563751 130.600235,195.379868 133.306366,197.582581 
	C136.144073,199.892319 139.597672,201.948624 143.104324,202.822266 
	C149.263580,204.356766 153.040619,200.644547 155.016785,194.594604 
	C157.094559,195.741531 158.463989,196.649292 159.949005,197.288605 
	C164.357071,199.186371 168.677094,201.496918 173.279755,202.682449 
	C179.234238,204.216171 182.450989,200.540787 180.243607,194.727844 
	C178.812302,190.958603 176.123245,187.666977 174.519592,184.023254 
	C174.699524,184.022797 174.879456,184.022339 175.810883,184.060715 
	C176.916428,184.393005 178.062119,184.629669 179.120712,185.073868 
	C184.174393,187.194427 189.143005,189.538818 194.281570,191.422562 
	C195.757385,191.963577 197.699524,191.232529 199.427856,191.084732 
	C198.892715,189.498703 198.511185,187.836502 197.774200,186.350571 
	C197.177216,185.146912 196.152817,184.155212 194.663162,182.217865 
	C199.510986,182.496613 203.175156,182.707291 206.839325,182.917984 
	C206.883896,182.521347 206.928482,182.124710 206.973053,181.728088 
	C203.990616,179.768524 201.008179,177.808975 198.025726,175.849411 
	C198.149002,175.532928 198.272278,175.216446 198.395554,174.899963 
	C201.620056,175.527649 204.844543,176.155334 208.069046,176.783035 
	C208.187363,176.413422 208.305679,176.043793 208.423996,175.674179 
	C206.895828,174.804718 205.367645,173.935272 202.923264,172.544525 
	C205.197983,172.284546 206.444321,171.991882 207.682175,172.024200 
	C218.295181,172.301300 228.905441,172.734726 239.519684,172.867920 
	C241.490753,172.892654 243.476105,171.779312 245.454865,171.191193 
	C244.512756,169.395569 243.872711,167.330917 242.564133,165.861710 
	C240.032562,163.019455 237.196213,160.432083 234.349136,157.892715 
	C232.116989,155.901810 232.000183,154.260925 234.274887,152.165024 
	C237.451859,149.237778 240.491714,146.147034 243.401108,142.953903 
	C244.181610,142.097275 244.866180,140.377762 244.509628,139.490341 
	C244.187134,138.687622 242.390396,138.092987 241.232132,138.072891 
	C233.916611,137.945999 226.597672,138.033997 219.280304,137.984238 
	C217.073242,137.969223 214.867615,137.741745 212.209412,137.584946 
	C217.410675,130.891525 217.333740,130.883560 218.307785,121.474358 
	C218.402557,120.558823 220.095520,119.612808 221.228043,119.039078 
	C224.097198,117.585571 227.069580,116.335854 230.681808,114.874855 
	C237.099350,111.004944 239.221237,104.668648 238.784286,97.920250 
	C238.393402,91.883102 236.616760,85.782455 229.498795,82.475349 
	C228.138962,81.871628 226.797226,80.800446 225.416107,80.747017 
	C220.110107,80.541740 219.216888,77.820198 218.693192,72.848885 
	C217.018921,56.955311 201.924072,48.463062 187.519867,54.817215 
	C184.672379,56.073345 183.223785,55.551701 181.301758,53.126175 
	C175.784973,46.164230 169.198441,41.725307 159.654068,45.460014 
	C158.251099,46.008995 156.001938,45.383186 154.523254,44.592369 
	C144.101410,39.018696 135.141571,41.835384 129.730972,52.457607 
	C128.724777,54.432957 127.254478,56.171886 125.323822,57.887089 
z"/>
<path fill="#04060A" opacity="1.000000" stroke="none" 
	d="
M173.997742,184.161331 
	C176.123245,187.666977 178.812302,190.958603 180.243607,194.727844 
	C182.450989,200.540787 179.234238,204.216171 173.279755,202.682449 
	C168.677094,201.496918 164.357071,199.186371 159.949005,197.288605 
	C158.463989,196.649292 157.094559,195.741531 155.016785,194.594604 
	C153.040619,200.644547 149.263580,204.356766 143.104324,202.822266 
	C139.597672,201.948624 136.144073,199.892319 133.306366,197.582581 
	C130.600235,195.379868 129.124802,194.563751 126.524170,197.732224 
	C124.497238,200.201752 121.700096,202.752151 118.762276,203.607147 
	C113.259071,205.208771 108.583008,203.178726 106.193138,196.994324 
	C102.856003,198.991714 99.942772,200.808609 96.956444,202.496155 
	C95.074097,203.559860 93.170464,204.887283 91.119553,205.282410 
	C87.845703,205.913132 84.441315,205.866333 81.092117,206.106018 
	C81.422119,203.006943 81.724762,199.904556 82.098763,196.810806 
	C82.211166,195.880997 82.522255,194.975189 82.943703,193.219376 
	C78.643227,194.760300 75.049149,196.240860 71.338844,197.322922 
	C67.684532,198.388657 63.944378,199.368439 60.177685,199.746811 
	C58.460690,199.919296 55.746933,199.020523 55.041351,197.746140 
	C54.422607,196.628555 55.492344,193.839172 56.672871,192.612869 
	C59.284599,189.899872 62.434944,187.705399 65.248833,184.190582 
	C60.124218,184.190582 54.999603,184.190582 49.874989,184.190582 
	C49.634270,183.465347 49.393551,182.740097 49.152828,182.014862 
	C52.435955,180.068756 55.719082,178.122650 59.302933,175.998291 
	C58.759369,175.667755 58.313992,175.197021 57.808365,175.119568 
	C50.814835,174.048203 43.838970,172.485703 36.806080,172.151093 
	C29.539673,171.805359 22.216045,172.669373 14.916968,172.993378 
	C14.085640,173.030289 13.205672,173.169662 12.427153,172.963531 
	C10.435817,172.436310 8.489007,171.740921 6.524388,171.112793 
	C7.384453,169.229889 7.906466,167.068527 9.178169,165.524673 
	C11.498503,162.707794 14.190669,160.179520 16.864094,157.676514 
	C19.178839,155.509293 19.300678,153.614822 16.930702,151.389206 
	C13.896242,148.539581 10.903791,145.623703 8.146935,142.511658 
	C7.185784,141.426651 6.978689,139.673660 6.427218,138.225739 
	C7.943017,137.896255 9.468048,137.247421 10.973061,137.290939 
	C18.692942,137.514145 26.407671,137.915543 35.289490,138.305908 
	C31.570435,132.267349 30.651407,127.006363 23.207436,125.090103 
	C12.175325,122.250175 6.342303,108.236519 15.131618,99.390030 
	C17.296616,97.210953 17.141975,95.227310 15.536716,92.742584 
	C11.810061,86.974213 10.785001,80.722397 13.128899,74.132835 
	C16.718838,64.040192 24.646406,60.175663 34.868809,63.445740 
	C36.271660,63.894505 37.708633,64.236603 39.459415,64.718872 
	C40.564926,62.285404 41.526196,60.022701 42.605648,57.817867 
	C48.290459,46.206356 60.643665,42.519680 71.565414,49.469120 
	C75.249603,51.813347 78.563416,54.381023 83.272415,53.062847 
	C83.860207,52.898304 84.668892,53.033581 85.225410,53.320518 
	C92.733627,57.191719 99.905022,53.670486 107.262436,52.631767 
	C110.869576,52.122501 114.696579,53.170670 118.710602,54.148689 
	C118.983894,55.564152 118.970680,56.344902 118.563202,57.063034 
	C116.112236,56.597881 114.055542,56.195351 111.929825,55.552139 
	C111.241943,55.479015 110.623077,55.646564 109.646240,55.896263 
	C107.215553,57.322582 105.142838,58.666756 102.788071,60.193832 
	C98.872192,57.604389 94.441605,58.580654 87.760452,64.019890 
	C86.606628,63.649384 85.795517,63.299244 85.072311,62.638748 
	C85.275475,62.209946 85.416847,62.106899 85.498390,61.968586 
	C85.575035,61.838558 85.659027,61.561226 85.619789,61.536091 
	C82.299377,59.409546 79.619041,61.148003 76.571060,62.992630 
	C75.412582,63.011822 74.640327,63.028236 73.560661,62.904495 
	C73.088715,62.475452 72.943932,62.173035 72.756729,61.899670 
	C68.024208,54.989044 60.336498,51.871643 53.279823,53.996387 
	C45.918484,56.212864 43.038620,60.906807 42.932014,70.712219 
	C42.926361,71.232216 42.336876,71.745872 41.616959,72.123596 
	C32.698025,68.986954 25.374521,71.294060 21.960922,78.345764 
	C21.567236,80.798744 21.365795,82.895592 21.092319,85.362434 
	C22.694283,88.782448 24.368279,91.832466 25.912384,95.163452 
	C25.508446,95.999413 25.234396,96.554413 24.612896,97.192619 
	C23.471802,99.040291 22.330690,100.735573 21.962496,102.584747 
	C21.344845,105.686775 21.219439,108.886818 20.932930,112.399422 
	C22.650631,114.807663 24.322309,116.862091 26.289272,119.128632 
	C28.895752,120.422134 31.206947,121.503525 33.750805,122.693779 
	C34.063248,127.939331 36.116356,132.348969 42.209404,134.339813 
	C48.581894,135.119339 54.726974,135.578461 61.184212,135.974045 
	C62.012966,135.561249 62.529572,135.211975 63.412445,134.944870 
	C71.504463,139.978256 80.051285,137.139389 89.077400,138.177780 
	C87.793900,135.923523 86.951393,134.443817 86.060646,132.654602 
	C86.040222,131.929184 86.068039,131.513260 86.389801,130.980469 
	C87.342628,130.974945 88.452354,130.893677 88.594261,131.225861 
	C91.868980,138.891388 98.990593,139.680588 106.499580,141.502670 
	C104.129242,136.609558 102.083176,132.385834 100.379906,128.084839 
	C101.808136,127.616478 102.893570,127.225388 104.227005,126.899666 
	C104.641327,126.925339 104.807640,126.885651 105.273926,126.994965 
	C105.822395,127.755150 106.070885,128.366333 106.417206,129.301041 
	C107.109650,131.059708 107.704254,132.494858 108.399673,134.269897 
	C109.281822,136.352890 110.063148,138.096024 110.831337,139.809830 
	C113.067825,139.411209 114.947556,139.076172 116.835068,138.739746 
	C116.835068,136.579117 116.835068,134.767456 116.896790,132.545044 
	C116.934792,130.752350 116.911072,129.370422 116.979553,127.598999 
	C117.221138,126.156479 117.370506,125.103462 117.519875,124.050446 
	C117.865387,124.065193 118.210899,124.079941 118.556412,124.094688 
	C118.756874,125.390556 118.957336,126.686417 119.083267,128.352234 
	C119.389481,130.133682 119.770241,131.545166 120.075470,133.379425 
	C119.999939,135.403000 119.999939,137.003830 119.999939,138.438034 
	C126.490387,140.790802 127.985176,139.902008 130.064728,132.684921 
	C131.178802,130.937805 132.133041,129.484421 133.394669,127.864288 
	C133.745941,126.783485 133.789825,125.869423 133.998489,124.651901 
	C135.413727,124.604286 136.664200,124.860138 137.836243,125.458115 
	C136.804031,128.188950 135.850220,130.577667 134.588608,133.131500 
	C133.209167,135.575272 132.137543,137.853897 130.840729,140.611359 
	C136.976089,139.350357 142.696701,138.589828 144.974884,131.650482 
	C145.586868,130.310410 146.035599,129.291412 146.482727,128.271606 
	C148.314346,128.875534 150.147568,129.480255 151.999603,130.068604 
	C152.018433,130.052216 151.972763,130.032074 152.067780,130.313507 
	C152.681702,130.859085 153.200623,131.123230 153.746063,131.316574 
	C153.772598,131.245773 153.773590,131.396988 154.015442,131.638687 
	C156.755646,133.045593 159.176163,134.436691 161.768250,135.329910 
	C167.522461,137.312775 172.757095,135.472382 176.731064,131.485596 
	C180.677856,127.526085 181.302765,122.309273 179.037506,116.634995 
	C178.466614,115.281769 177.932373,114.278313 177.398148,113.274857 
	C177.621613,113.063995 177.845078,112.853134 178.068542,112.642273 
	C179.339752,113.777573 180.610977,114.912872 181.936951,116.409363 
	C182.632645,118.242310 183.273590,119.714050 183.922760,121.397110 
	C183.930969,121.608429 184.116562,121.988480 184.057846,122.362160 
	C184.052109,123.487381 184.105087,124.238914 184.066940,125.301102 
	C183.697479,126.404167 183.419128,127.196579 183.050522,128.337433 
	C181.016312,131.440903 179.072372,134.195938 177.154526,136.913986 
	C187.500671,135.943237 197.366959,133.124847 204.944580,125.255920 
	C204.627991,127.408905 204.315750,129.174545 203.795517,131.161285 
	C203.007812,131.910736 202.428085,132.439102 201.519928,133.086273 
	C197.893143,134.887909 194.594818,136.570724 191.296494,138.253540 
	C198.108841,138.370575 204.436218,137.437439 209.026993,132.017807 
	C209.000702,132.004257 209.018814,132.060562 209.276672,131.986862 
	C209.712387,131.615555 209.890244,131.317947 210.037537,131.013031 
	C210.006989,131.005737 210.021423,131.066864 210.280426,130.989105 
	C210.716049,130.609894 210.892685,130.308441 211.382980,129.820007 
	C214.472092,123.360703 214.472092,123.360703 212.048798,118.301674 
	C211.364029,119.636871 210.741806,120.850090 209.672394,122.041794 
	C208.330460,121.968132 207.435684,121.915993 206.660736,121.513008 
	C207.127335,119.770660 207.474136,118.379150 207.965820,116.616013 
	C208.343857,114.160118 208.577011,112.075844 208.882019,109.546646 
	C208.301712,105.075890 207.649567,101.050056 206.978271,96.706238 
	C206.626053,95.622780 206.292969,94.857307 206.178131,93.909485 
	C207.658920,94.127785 208.921478,94.528435 210.455872,95.068382 
	C210.820984,95.803764 210.914230,96.399857 210.806763,97.212074 
	C211.015015,98.286453 211.423965,99.144699 211.913269,100.352509 
	C212.461700,101.952835 212.929794,103.203606 213.468246,104.642395 
	C217.864334,97.821815 215.612366,92.011459 211.843201,86.325172 
	C211.334793,85.558182 210.656998,84.417549 210.885544,83.721992 
	C213.650177,75.308594 212.434418,70.369713 205.894226,64.566513 
	C203.846893,63.460705 201.944183,62.674347 199.871811,61.564178 
	C191.919067,60.097733 188.276749,61.084679 182.351654,65.981079 
	C182.606400,66.202873 182.821121,66.505386 183.109711,66.617088 
	C183.717758,66.852470 184.364502,66.987885 184.981384,67.507812 
	C184.643875,69.180092 184.320343,70.508873 183.639633,71.800575 
	C182.186890,71.563896 181.091324,71.364296 179.547729,71.093529 
	C176.082474,71.053993 173.065231,71.085625 169.856857,70.893723 
	C169.145493,70.409966 168.625244,70.149742 167.955643,69.539337 
	C167.267868,68.669670 166.729446,68.150192 166.437393,67.377937 
	C167.594650,66.547195 170.392624,68.084854 169.439194,64.998932 
	C170.555893,64.994370 171.300354,64.990295 172.386948,65.180054 
	C175.079773,65.630836 177.430481,65.887787 181.079117,66.286629 
	C179.778595,63.113461 178.914963,61.006256 178.019104,58.546173 
	C172.483292,50.656193 164.127075,49.405598 155.929245,54.945068 
	C155.506668,54.971447 155.337692,54.982845 155.033615,54.666672 
	C150.626740,46.787220 137.527634,46.119289 132.074066,58.173466 
	C132.021957,59.433197 131.992691,60.273247 131.581146,61.057526 
	C130.168747,61.018044 129.138672,61.034332 127.829193,60.886017 
	C127.032661,59.820915 126.515518,58.920422 125.998375,58.019932 
	C127.254478,56.171886 128.724777,54.432957 129.730972,52.457607 
	C135.141571,41.835384 144.101410,39.018696 154.523254,44.592369 
	C156.001938,45.383186 158.251099,46.008995 159.654068,45.460014 
	C169.198441,41.725307 175.784973,46.164230 181.301758,53.126175 
	C183.223785,55.551701 184.672379,56.073345 187.519867,54.817215 
	C201.924072,48.463062 217.018921,56.955311 218.693192,72.848885 
	C219.216888,77.820198 220.110107,80.541740 225.416107,80.747017 
	C226.797226,80.800446 228.138962,81.871628 229.813858,83.078156 
	C233.459915,89.189667 237.780075,94.597221 235.824631,101.529030 
	C234.507782,106.197021 231.984299,110.524628 230.000610,115.004517 
	C227.069580,116.335854 224.097198,117.585571 221.228043,119.039078 
	C220.095520,119.612808 218.402557,120.558823 218.307785,121.474358 
	C217.333740,130.883560 217.410675,130.891525 212.209412,137.584946 
	C214.867615,137.741745 217.073242,137.969223 219.280304,137.984238 
	C226.597672,138.033997 233.916611,137.945999 241.232132,138.072891 
	C242.390396,138.092987 244.187134,138.687622 244.509628,139.490341 
	C244.866180,140.377762 244.181610,142.097275 243.401108,142.953903 
	C240.491714,146.147034 237.451859,149.237778 234.274887,152.165024 
	C232.000183,154.260925 232.116989,155.901810 234.349136,157.892715 
	C237.196213,160.432083 240.032562,163.019455 242.564133,165.861710 
	C243.872711,167.330917 244.512756,169.395569 245.454865,171.191193 
	C243.476105,171.779312 241.490753,172.892654 239.519684,172.867920 
	C228.905441,172.734726 218.295181,172.301300 207.682175,172.024200 
	C206.444321,171.991882 205.197983,172.284546 202.923264,172.544525 
	C205.367645,173.935272 206.895828,174.804718 208.423996,175.674179 
	C208.305679,176.043793 208.187363,176.413422 208.069046,176.783035 
	C204.844543,176.155334 201.620056,175.527649 198.395554,174.899963 
	C198.272278,175.216446 198.149002,175.532928 198.025726,175.849411 
	C201.008179,177.808975 203.990616,179.768524 206.973053,181.728088 
	C206.928482,182.124710 206.883896,182.521347 206.839325,182.917984 
	C203.175156,182.707291 199.510986,182.496613 194.663162,182.217865 
	C196.152817,184.155212 197.177216,185.146912 197.774200,186.350571 
	C198.511185,187.836502 198.892715,189.498703 199.427856,191.084732 
	C197.699524,191.232529 195.757385,191.963577 194.281570,191.422562 
	C189.143005,189.538818 184.174393,187.194427 179.120712,185.073868 
	C178.062119,184.629669 176.916428,184.393005 175.518509,183.714523 
	C174.520096,182.563110 173.814056,181.757889 173.003723,180.683960 
	C172.330521,179.915085 171.761627,179.414871 171.115295,178.632874 
	C170.684555,177.900726 170.331268,177.450394 169.908737,176.693237 
	C168.908371,175.557007 167.977264,174.727585 166.904388,173.586334 
	C164.585449,170.547653 162.633591,170.071686 158.790100,171.358673 
	C154.245117,172.880554 148.828873,172.376541 143.875916,171.886139 
	C140.941788,171.595627 138.405609,171.223587 135.260010,171.699570 
	C126.480171,173.028137 117.488869,172.959213 108.502670,173.446213 
	C108.502670,171.001770 108.502670,169.269791 108.502670,167.307510 
	C105.397949,167.307510 102.605576,167.307510 99.580765,167.307510 
	C101.316528,171.939102 98.310661,172.688873 94.901939,172.937500 
	C92.772270,173.092834 90.624939,173.005936 88.269119,172.717346 
	C83.148781,173.060150 78.244858,173.713318 73.340935,174.366486 
	C73.465523,175.060715 73.590103,175.754944 73.714684,176.449173 
	C77.828148,175.596970 81.941605,174.744766 86.403915,174.149719 
	C86.482773,174.913559 86.212791,175.420258 85.657028,176.039795 
	C84.562675,177.063629 83.754097,177.974609 82.649277,179.016357 
	C81.195007,180.409256 80.036972,181.671417 78.569778,183.094849 
	C77.153076,184.943237 76.045540,186.630356 74.938011,188.317490 
	C75.167900,188.781647 75.397789,189.245819 75.627678,189.709991 
	C79.441849,188.175507 83.256020,186.641022 87.448898,185.103790 
	C90.604462,184.073639 93.381317,183.046249 96.053665,182.356781 
	C95.656342,183.798965 95.363518,184.903214 94.846985,186.291611 
	C93.012749,190.247726 91.402222,193.919708 89.127579,199.105865 
	C92.308754,197.953583 94.217003,197.649658 95.658775,196.663635 
	C99.217064,194.230164 102.561394,191.483810 106.317574,188.771606 
	C108.466057,186.469330 110.288696,184.258713 112.402954,182.145966 
	C112.853195,182.831100 113.011803,183.418365 113.097786,184.422623 
	C112.681725,187.780701 111.904633,190.752930 112.112808,193.654449 
	C112.335655,196.760437 113.669701,198.960190 117.748817,197.224686 
	C123.970787,194.577484 125.886620,189.568451 126.539734,183.279709 
	C127.122795,182.733383 127.514549,182.395920 127.951828,182.389191 
	C128.404892,183.487442 128.812439,184.254959 129.268036,185.352158 
	C132.619873,189.023026 135.461624,193.102890 139.338470,195.528015 
	C144.812714,198.952347 148.691528,196.300720 148.910797,189.711166 
	C148.962479,188.157562 148.229889,186.577835 147.918365,184.668396 
	C147.704758,183.527649 147.430893,182.728622 147.225494,181.636505 
	C148.177078,181.594223 149.060181,181.845032 150.061035,182.382935 
	C151.101379,183.481979 152.023956,184.293884 153.088074,185.413803 
	C157.731369,188.566833 162.185532,191.492813 166.773727,194.190872 
	C167.730087,194.753235 169.182098,194.472687 170.405701,194.580582 
	C170.410767,193.363556 170.770248,192.003860 170.349335,190.958313 
	C169.383621,188.559402 168.037430,186.313675 167.032623,183.648468 
	C168.818893,183.262329 170.418243,183.233475 172.180130,183.362000 
	C172.583298,183.705338 172.845627,183.852615 173.352600,183.985657 
	C173.575516,184.010101 173.997742,184.161331 173.997742,184.161331 
M140.238632,145.162247 
	C139.537582,146.784363 138.836533,148.406494 137.749619,150.767426 
	C136.255707,155.085266 136.380737,159.208328 139.164398,163.481796 
	C139.525497,163.724503 139.886581,163.967194 140.206528,164.676559 
	C140.206528,164.676559 140.623962,164.889236 140.905563,165.355301 
	C146.111282,170.388199 153.778656,170.063644 158.980698,166.340332 
	C163.560013,163.062714 165.192505,156.444870 163.003143,149.287430 
	C161.611725,147.650772 160.220291,146.014114 158.922852,143.563797 
	C151.163208,139.486542 146.365875,139.845901 140.927673,144.942307 
	C140.927673,144.942307 140.897018,144.950821 140.238632,145.162247 
M113.995659,160.889862 
	C113.995659,163.154083 113.995659,165.418289 113.995659,167.978149 
	C119.816109,167.978149 125.108597,168.130661 130.378006,167.849930 
	C131.436615,167.793533 132.407486,166.090439 133.418823,165.146591 
	C133.085052,164.709946 132.751282,164.273285 132.417526,163.836639 
	C128.345245,163.836639 124.272957,163.836639 119.823639,163.836639 
	C119.823639,160.591125 119.823639,157.790756 119.963356,154.076172 
	C119.963356,150.453568 119.963356,146.830948 119.963356,143.361053 
	C115.366974,142.211411 113.582191,143.644913 113.923096,148.020126 
	C114.232681,151.993256 114.092461,156.001450 113.995659,160.889862 
M169.994629,145.894730 
	C170.044250,148.929108 170.093857,151.963470 169.987839,155.917877 
	C169.987839,159.831970 169.987839,163.746078 169.987839,167.982864 
	C174.441742,167.982864 178.409897,167.660049 182.308563,168.043594 
	C193.849808,169.178986 199.376404,157.160294 194.177704,147.774948 
	C193.059326,146.632919 191.940948,145.490891 190.912033,143.484253 
	C184.248077,143.004974 177.585434,142.498535 170.914001,142.172241 
	C170.705429,142.162048 170.405823,144.013550 169.994629,145.894730 
M35.007233,152.005447 
	C35.007233,150.423874 35.007233,148.842300 35.007233,146.861389 
	C39.967751,146.861389 44.386417,146.861389 50.565193,146.861389 
	C48.679398,144.840469 47.845795,143.149139 46.950073,143.115585 
	C40.715927,142.881973 34.468895,142.992203 28.158981,142.992203 
	C28.158981,147.411652 28.158981,151.203781 28.007841,155.916595 
	C28.007841,159.841431 28.007841,163.766266 28.007841,167.988342 
	C34.504902,167.988342 40.457104,168.124619 46.391491,167.860535 
	C47.438629,167.813950 48.411335,166.094757 49.418415,165.147964 
	C49.083096,164.710922 48.747776,164.273880 48.412460,163.836838 
	C44.009415,163.836838 39.606373,163.836838 35.337021,163.836838 
	C35.337021,161.316895 35.337021,159.267075 35.337021,157.002716 
	C38.308960,157.002716 40.953472,157.097977 43.587669,156.973999 
	C45.889183,156.865677 49.392467,158.149536 48.348289,152.885666 
	C43.948582,152.885666 39.499542,152.885666 35.007233,152.005447 
M213.410568,110.434021 
	C213.296646,111.510124 213.182739,112.586227 213.068146,113.668701 
	C221.259537,114.277161 228.153931,108.481941 228.977585,100.601089 
	C229.669479,93.981163 224.815155,87.971016 218.037445,87.334854 
	C218.411301,88.599335 218.760101,89.779121 218.635025,91.506508 
	C219.224884,97.354805 218.786438,102.913422 214.490540,107.530846 
	C214.021011,108.035507 214.149536,109.096558 213.410568,110.434021 
M219.079361,153.023972 
	C215.801041,153.023972 212.522705,153.023972 208.993011,153.023972 
	C208.993011,151.656189 208.966782,150.849609 208.999847,150.045456 
	C209.038208,149.112274 209.128616,148.181229 209.191772,147.313019 
	C223.810013,146.099854 223.810013,146.099854 224.460770,143.313293 
	C217.064972,143.313293 209.657196,143.313293 202.152817,143.313293 
	C202.152817,150.740448 202.152817,157.866318 202.003860,165.867615 
	C202.289551,166.544357 202.565994,167.807281 202.862289,167.811981 
	C209.874359,167.922653 216.888596,167.897858 223.902420,167.897858 
	C223.949051,167.358536 223.995682,166.819214 224.042297,166.279877 
	C219.721848,162.609955 214.035904,166.112457 209.099899,164.313187 
	C209.099899,161.946136 209.099899,159.491882 209.553772,156.964539 
	C209.553772,156.964539 209.989456,156.817810 210.909393,156.969452 
	C214.791870,156.969452 218.674332,156.969452 222.602356,156.969452 
	C223.270721,154.348984 223.466537,152.415009 219.079361,153.023972 
M84.998489,161.878555 
	C84.998489,163.806702 84.998489,165.734863 84.998489,167.608704 
	C87.474068,167.608704 89.487389,167.608704 92.075211,167.608704 
	C92.075211,164.195190 92.075211,161.164932 92.075211,157.992752 
	C95.125206,157.992752 97.591217,158.015793 100.056641,157.987488 
	C104.031372,157.941879 106.406784,156.059448 106.969727,151.187027 
	C106.826019,145.774551 104.662109,143.133820 99.588326,142.873703 
	C94.865242,142.631546 90.119987,142.822006 85.152969,142.822006 
	C85.152969,149.163895 85.152969,155.076813 84.998489,161.878555 
M62.974945,164.686096 
	C64.439217,162.806961 65.903481,160.927826 67.364967,159.052277 
	C71.346985,162.421265 71.972588,169.908539 79.679565,167.555466 
	C77.142097,164.211578 74.417664,161.149170 72.384689,157.681381 
	C71.576027,156.301987 71.686623,153.710144 72.452339,152.223145 
	C73.991180,149.234741 76.267502,146.626083 78.363121,143.687347 
	C71.409981,140.745911 70.810844,148.300064 67.001183,149.982285 
	C63.737000,146.383102 61.946308,140.774124 55.291946,143.468582 
	C57.159626,146.123657 58.651886,149.160141 60.968750,151.306564 
	C63.851784,153.977524 62.943348,155.977097 61.078819,158.434433 
	C58.807343,161.428085 56.667542,164.521637 54.470791,167.571991 
	C54.664227,167.991516 54.857666,168.411041 55.051102,168.830566 
	C57.591476,167.679688 60.131855,166.528824 62.974945,164.686096 
z"/>
<path fill="#070809" opacity="1.000000" stroke="none" 
	d="
M230.341217,114.939682 
	C231.984299,110.524628 234.507782,106.197021 235.824631,101.529030 
	C237.780075,94.597221 233.459915,89.189667 230.065979,83.334740 
	C236.616760,85.782455 238.393402,91.883102 238.784286,97.920250 
	C239.221237,104.668648 237.099350,111.004944 230.341217,114.939682 
z"/>
<path fill="#FAAB1E" opacity="1.000000" stroke="none" 
	d="
M174.258667,184.092285 
	C173.997742,184.161331 173.575516,184.010101 173.255524,183.737701 
	C172.629547,183.378403 172.323563,183.291519 172.017578,183.204620 
	C170.418243,183.233475 168.818893,183.262329 166.578949,183.645752 
	C161.607727,184.368805 157.277145,184.737289 152.946548,185.105774 
	C152.023956,184.293884 151.101379,183.481979 150.392929,182.125458 
	C158.107376,181.371460 165.607697,181.162064 173.108017,180.952667 
	C173.814056,181.757889 174.520096,182.563110 175.142761,183.695099 
	C174.879456,184.022339 174.699524,184.022797 174.258667,184.092285 
z"/>
<path fill="#070809" opacity="1.000000" stroke="none" 
	d="
M125.661102,57.953510 
	C126.515518,58.920422 127.032661,59.820915 127.792831,61.183319 
	C128.080673,62.042267 128.125504,62.439301 127.968765,63.063095 
	C127.636848,63.444492 127.506485,63.599133 127.119019,63.530579 
	C124.227097,61.246811 121.592278,59.186234 118.957458,57.125652 
	C118.970680,56.344902 118.983894,55.564152 118.998405,54.393036 
	C121.107735,55.297474 123.215782,56.592281 125.661102,57.953510 
z"/>
<path fill="#FDE828" opacity="1.000000" stroke="none" 
	d="
M128.170319,62.836334 
	C128.125504,62.439301 128.080673,62.042267 128.072220,61.347927 
	C129.138672,61.034332 130.168747,61.018044 131.746216,61.380913 
	C136.166321,64.225258 140.039032,66.690453 143.810471,69.091171 
	C146.368210,61.962673 151.706223,58.468731 157.925095,60.506516 
	C153.559708,64.470062 150.969238,68.905106 151.611908,74.716064 
	C151.875244,77.097145 152.768372,79.437798 152.804825,81.805626 
	C152.834854,83.754654 152.022980,85.716652 151.584244,87.672897 
	C149.708130,86.744087 147.832001,85.815269 145.971497,84.536629 
	C141.665848,79.630890 137.610001,74.780899 132.962433,70.586555 
	C125.606537,63.947979 117.336800,60.970921 107.263313,64.759315 
	C98.032433,68.230835 93.981667,76.319786 88.917709,83.589912 
	C88.211494,84.603790 88.207191,86.106575 87.995148,86.928726 
	C90.969818,84.255646 93.961517,81.567268 96.964081,79.330055 
	C97.043571,88.230705 100.563103,95.900322 104.430603,96.069946 
	C104.083618,93.597099 103.734329,91.107773 103.385033,88.618454 
	C103.912506,88.534058 104.439980,88.449669 104.967453,88.365280 
	C105.275368,88.893135 105.763786,89.389389 105.862587,89.953835 
	C106.644547,94.421158 109.889816,96.591690 113.792320,96.812294 
	C118.117134,97.056770 121.169258,94.314262 122.723251,90.190201 
	C123.013474,89.419975 122.911949,88.160202 123.411995,87.881615 
	C124.477173,87.288177 126.687248,86.629692 126.911453,86.976997 
	C128.999313,90.211136 132.116608,89.967140 135.288803,90.116928 
	C136.408005,90.169785 138.383835,91.204338 138.386520,91.797844 
	C138.392120,93.033424 137.506683,94.403564 136.668503,95.467072 
	C136.099640,96.188866 134.854385,96.337814 134.142715,96.993706 
	C131.028946,99.863411 127.610954,102.528954 125.077713,105.857857 
	C123.421242,108.034599 124.130432,108.658295 127.393867,108.891266 
	C128.807861,108.119247 129.804077,107.222862 130.949539,106.601677 
	C136.369415,103.662430 141.752670,100.438354 148.054291,103.058762 
	C145.872665,107.157669 147.325668,114.928528 150.383362,117.258286 
	C148.907867,119.544350 147.435379,121.832321 145.560394,124.116798 
	C142.743484,124.447533 140.329071,124.781769 137.914658,125.115997 
	C136.664200,124.860138 135.413727,124.604286 133.682770,124.539825 
	C128.277618,125.529839 123.869316,124.791283 120.004326,121.201958 
	C119.008636,120.277267 116.546875,119.803604 115.394264,120.384369 
	C111.758575,122.216217 108.424644,124.646965 104.973946,126.845963 
	C104.807640,126.885651 104.641327,126.925339 103.992935,126.608612 
	C101.796333,125.831673 100.042397,125.528191 98.375183,124.967079 
	C94.491173,123.659866 90.241837,122.861366 86.883987,120.701126 
	C81.693008,117.361549 82.425522,112.898582 87.254761,109.178795 
	C89.827209,107.197334 91.345161,103.846878 93.706284,101.072525 
	C95.301994,101.537888 96.530510,102.045052 97.759018,102.552208 
	C97.047615,100.796394 95.896507,99.747063 94.586037,98.964622 
	C85.285225,93.411469 76.854225,95.519501 68.528900,101.987076 
	C59.238964,101.944611 53.260857,97.294693 53.004086,90.241089 
	C52.590099,78.868927 61.689453,71.659813 72.860764,74.460533 
	C75.261047,75.062294 77.713165,75.457336 80.481995,75.804710 
	C82.187035,74.400032 83.938698,73.362000 84.826904,71.824997 
	C86.224442,69.406593 87.040756,66.652321 88.103157,64.040253 
	C94.441605,58.580654 98.872192,57.604389 102.788071,60.193832 
	C105.142838,58.666756 107.215553,57.322582 109.977051,55.963242 
	C111.110161,55.896317 111.554504,55.844566 111.998840,55.792816 
	C114.055542,56.195351 116.112236,56.597881 118.563202,57.063034 
	C121.592278,59.186234 124.227097,61.246811 127.311356,63.750759 
	C128.101074,64.333733 128.441360,64.473335 128.781647,64.612938 
	C128.577866,64.020737 128.374100,63.428535 128.170319,62.836334 
M109.646484,106.608772 
	C110.251305,106.278549 110.856133,105.948326 111.460960,105.618103 
	C109.914497,103.100311 108.368034,100.582520 106.821564,98.064728 
	C106.089256,98.523674 105.356941,98.982620 104.624634,99.441574 
	C106.095032,101.730011 107.565422,104.018448 109.646484,106.608772 
z"/>
<path fill="#070707" opacity="1.000000" stroke="none" 
	d="
M68.952934,101.987312 
	C76.854225,95.519501 85.285225,93.411469 94.586037,98.964622 
	C95.896507,99.747063 97.047615,100.796394 97.759018,102.552208 
	C96.530510,102.045052 95.301994,101.537888 93.497345,100.789131 
	C91.038643,100.330818 89.156082,100.114105 87.034996,99.659279 
	C85.766426,99.574280 84.736382,99.727394 83.337952,99.894196 
	C81.627098,100.219879 80.284622,100.531868 78.578217,100.904114 
	C71.348122,103.403824 67.129852,108.225334 65.258904,115.225311 
	C64.999435,116.196091 64.511971,117.229599 63.824207,117.936470 
	C62.398567,119.401703 60.767338,120.666908 59.125427,122.426208 
	C59.671093,125.603004 60.311977,128.367950 60.987183,131.447540 
	C61.696392,132.795685 62.371284,133.829208 63.046173,134.862717 
	C62.529572,135.211975 62.012966,135.561249 60.862465,135.819824 
	C55.856304,134.422928 51.484039,133.116730 46.918262,131.530121 
	C43.823982,128.899765 39.936417,127.092247 38.271309,124.063072 
	C36.172504,120.244888 33.504005,117.804649 29.827602,115.670052 
	C28.465397,113.698967 27.125496,112.054558 25.579468,110.071953 
	C25.235676,105.525650 25.098011,101.317528 24.960346,97.109413 
	C25.234396,96.554413 25.508446,95.999413 26.274145,95.083374 
	C27.869177,94.151505 28.972561,93.580666 30.044128,93.375092 
	C29.871531,94.455154 29.730751,95.169937 29.354683,96.122032 
	C29.035349,97.468903 28.951303,98.578468 28.634016,99.924736 
	C28.442329,101.214478 28.483885,102.267525 28.511261,103.339798 
	C28.497082,103.359024 28.488459,103.406097 28.613640,103.768265 
	C30.243223,107.489716 31.747627,110.848991 33.562939,114.902527 
	C37.039726,109.909294 36.566956,106.375221 33.895565,102.550949 
	C33.917469,100.074753 33.874382,98.031921 33.909554,95.626877 
	C35.796730,92.261658 37.676510,89.298103 39.381229,86.237061 
	C40.108456,84.931244 40.470127,83.421844 40.999592,82.002502 
	C41.001274,82.000053 41.002125,81.994064 41.164486,81.899620 
	C41.574524,81.602676 41.591454,81.382538 41.574356,80.771553 
	C42.183834,78.276009 42.596592,76.153664 43.303173,73.850311 
	C44.526501,72.147537 45.288315,70.486893 46.414009,69.127609 
	C51.822666,62.596638 61.705276,58.202831 71.786224,63.828537 
	C72.204193,64.061783 73.161842,63.327942 73.868065,63.044655 
	C74.640327,63.028236 75.412582,63.011822 76.441101,63.294807 
	C73.636902,68.645073 80.755753,68.212746 80.625458,71.790886 
	C81.691673,70.088264 82.048218,68.537987 82.673744,67.105148 
	C83.305031,65.659142 84.203171,64.329643 84.984398,62.949100 
	C85.795517,63.299244 86.606628,63.649384 87.760452,64.019890 
	C87.040756,66.652321 86.224442,69.406593 84.826904,71.824997 
	C83.938698,73.362000 82.187035,74.400032 80.423187,75.456375 
	C78.535950,73.529999 77.254219,71.558739 75.523003,70.133415 
	C69.474648,65.153755 62.581940,63.893929 55.384075,67.033043 
	C48.489174,70.040031 45.157223,75.674957 44.805515,83.243820 
	C44.731636,84.833778 43.543816,86.458855 42.607925,87.897736 
	C41.647907,89.373718 40.367466,90.641273 39.036041,92.343483 
	C38.449814,96.169884 38.054813,99.652847 37.743649,103.489380 
	C39.553078,106.251259 41.278671,108.659576 42.642242,111.032173 
	C40.904976,110.996445 39.529732,110.996445 37.613068,110.996445 
	C38.088886,113.378265 38.457592,115.223892 38.882256,117.403183 
	C39.258511,118.507484 39.578804,119.278130 39.942440,120.384285 
	C41.271526,122.168739 42.557274,123.617676 44.002960,125.379982 
	C47.535458,128.516022 51.179394,130.440903 55.915855,129.591400 
	C55.494858,127.794189 55.166718,126.393379 54.917706,124.685509 
	C55.253212,123.587685 55.509590,122.796921 55.866364,121.689003 
	C56.014015,120.931511 56.061260,120.491173 56.390869,119.923080 
	C57.129723,118.898087 57.586212,118.000847 58.351944,116.966217 
	C59.809921,115.627655 60.958652,114.426468 62.414330,113.033813 
	C63.414696,110.894104 64.108124,108.945877 64.948288,106.689156 
	C66.381004,104.916222 67.666969,103.451767 68.952934,101.987312 
z"/>
<path fill="#FDE026" opacity="1.000000" stroke="none" 
	d="
M170.047989,71.117264 
	C173.065231,71.085625 176.082474,71.053993 179.624176,71.419800 
	C181.200989,72.830246 182.106140,74.092461 183.329910,74.815155 
	C190.415283,78.999451 193.804123,85.487610 192.695679,93.271919 
	C191.509521,101.601746 186.731079,107.960556 178.227768,110.770424 
	C177.188477,111.113853 175.692612,111.590294 175.382126,112.385376 
	C172.847244,118.876297 167.057816,121.039375 161.354034,123.422478 
	C157.863403,124.880905 154.441559,126.503922 150.684067,127.980545 
	C149.569443,127.299873 148.759552,126.691666 148.142975,125.783775 
	C149.000885,125.012512 149.605362,124.396172 150.339249,124.091400 
	C159.097153,120.454430 167.813187,116.797722 173.258240,108.314583 
	C173.854935,107.384995 174.926575,106.688507 175.902252,106.084831 
	C188.211777,98.468552 185.310211,83.116188 174.519318,76.674309 
	C172.696808,75.586304 171.464462,73.509682 169.981079,71.696632 
	C170.002701,71.503433 170.047989,71.117264 170.047989,71.117264 
z"/>
<path fill="#FDD723" opacity="1.000000" stroke="none" 
	d="
M150.988815,128.053024 
	C154.441559,126.503922 157.863403,124.880905 161.354034,123.422478 
	C167.057816,121.039375 172.847244,118.876297 175.382126,112.385376 
	C175.692612,111.590294 177.188477,111.113853 178.227768,110.770424 
	C186.731079,107.960556 191.509521,101.601746 192.695679,93.271919 
	C193.804123,85.487610 190.415283,78.999451 183.329910,74.815155 
	C182.106140,74.092461 181.200989,72.830246 180.072205,71.490967 
	C181.091324,71.364296 182.186890,71.563896 183.988953,71.877930 
	C185.781662,72.370239 186.867889,72.748108 188.104187,73.433609 
	C193.042282,76.329384 195.955750,80.201973 197.082779,85.618820 
	C197.407623,87.180115 199.021225,88.473267 200.037933,90.294403 
	C201.833405,96.635498 199.711105,101.732208 195.622635,105.616096 
	C191.478699,109.552635 186.496979,112.607269 181.882202,116.048172 
	C180.610977,114.912872 179.339752,113.777573 178.068542,112.642273 
	C177.845078,112.853134 177.621613,113.063995 177.398148,113.274857 
	C177.932373,114.278313 178.466614,115.281769 178.783691,116.858795 
	C175.453995,120.254288 172.726959,123.795937 169.133804,125.720688 
	C164.367767,128.273712 158.925354,129.564056 153.773590,131.396988 
	C153.773590,131.396988 153.772598,131.245773 153.658020,131.025696 
	C153.019882,130.547760 152.496323,130.289917 151.972763,130.032074 
	C151.972763,130.032074 152.018433,130.052216 151.906891,129.799942 
	C151.526520,129.049454 151.257660,128.551239 150.988815,128.053024 
z"/>
<path fill="#FDE626" opacity="1.000000" stroke="none" 
	d="
M78.942154,100.843857 
	C80.284622,100.531868 81.627098,100.219879 83.783165,99.935738 
	C85.489021,99.941513 86.381271,99.919449 87.273529,99.897385 
	C89.156082,100.114105 91.038643,100.330818 93.130135,100.830933 
	C91.345161,103.846878 89.827209,107.197334 87.254761,109.178795 
	C82.425522,112.898582 81.693008,117.361549 86.883987,120.701126 
	C90.241837,122.861366 94.491173,123.659866 98.375183,124.967079 
	C100.042397,125.528191 101.796333,125.831673 103.744934,126.543243 
	C102.893570,127.225388 101.808136,127.616478 100.023819,128.213989 
	C96.264061,128.317749 93.203171,128.215088 89.834595,127.926880 
	C85.673569,125.486542 81.696388,123.416519 77.994759,120.935387 
	C71.815269,116.793427 71.252258,110.875755 76.113968,105.329887 
	C77.264870,104.017036 78.010239,102.348679 78.942154,100.843857 
z"/>
<path fill="#D5501E" opacity="1.000000" stroke="none" 
	d="
M88.485527,173.027725 
	C90.624939,173.005936 92.772270,173.092834 94.901939,172.937500 
	C98.310661,172.688873 101.316528,171.939102 99.580765,167.307510 
	C102.605576,167.307510 105.397949,167.307510 108.502670,167.307510 
	C108.502670,169.269791 108.502670,171.001770 108.502670,173.446213 
	C117.488869,172.959213 126.480171,173.028137 135.260010,171.699570 
	C138.405609,171.223587 140.941788,171.595627 143.875916,171.886139 
	C148.828873,172.376541 154.245117,172.880554 158.790100,171.358673 
	C162.633591,170.071686 164.585449,170.547653 166.570404,173.838303 
	C165.576004,174.584000 164.776230,174.913177 163.971268,174.926331 
	C141.703049,175.290680 119.434891,175.699646 97.164963,175.871140 
	C94.110428,175.894653 91.046600,174.710495 88.126709,173.796387 
	C88.361702,173.315933 88.457069,173.124557 88.554695,172.970276 
	C88.556961,173.007355 88.485527,173.027725 88.485527,173.027725 
z"/>
<path fill="#FCCB20" opacity="1.000000" stroke="none" 
	d="
M62.823586,165.032013 
	C60.131855,166.528824 57.591476,167.679688 55.051102,168.830566 
	C54.857666,168.411041 54.664227,167.991516 54.470791,167.571991 
	C56.667542,164.521637 58.807343,161.428085 61.078819,158.434433 
	C62.943348,155.977097 63.851784,153.977524 60.968750,151.306564 
	C58.651886,149.160141 57.159626,146.123657 55.291946,143.468582 
	C61.946308,140.774124 63.737000,146.383102 67.001183,149.982285 
	C70.810844,148.300064 71.409981,140.745911 78.363121,143.687347 
	C76.267502,146.626083 73.991180,149.234741 72.452339,152.223145 
	C71.686623,153.710144 71.576027,156.301987 72.384689,157.681381 
	C74.417664,161.149170 77.142097,164.211578 79.679565,167.555466 
	C71.972588,169.908539 71.346985,162.421265 67.364967,159.052277 
	C65.903481,160.927826 64.439217,162.806961 62.823586,165.032013 
z"/>
<path fill="#F49D21" opacity="1.000000" stroke="none" 
	d="
M173.003723,180.683975 
	C165.607697,181.162064 158.107376,181.371460 150.275177,181.838348 
	C149.060181,181.845032 148.177078,181.594223 146.815277,181.631836 
	C140.193161,181.966324 134.049744,182.012390 127.906311,182.058472 
	C127.514549,182.395920 127.122795,182.733383 126.235245,182.989929 
	C121.413811,181.716400 117.168144,181.440216 113.170403,184.005646 
	C113.011803,183.418365 112.853195,182.831100 111.930054,182.132904 
	C106.163071,182.020950 101.160622,182.019897 96.158173,182.018860 
	C93.381317,183.046249 90.604462,184.073639 87.161743,184.854919 
	C83.956902,184.050415 81.417923,183.492004 78.878937,182.933578 
	C80.036972,181.671417 81.195007,180.409256 82.979919,179.275452 
	C91.404274,179.257980 99.201752,179.112183 107.438690,178.969177 
	C115.918999,178.663208 123.959854,178.354462 132.340546,178.279602 
	C145.517838,178.647202 158.355270,178.780930 171.192719,178.914673 
	C171.761627,179.414871 172.330521,179.915085 173.003723,180.683975 
z"/>
<path fill="#FCCB20" opacity="1.000000" stroke="none" 
	d="
M194.466171,148.163162 
	C199.376404,157.160294 193.849808,169.178986 182.308563,168.043594 
	C178.409897,167.660049 174.441742,167.982864 169.987839,167.982864 
	C169.987839,163.746078 169.987839,159.831970 170.395294,155.387924 
	C172.824203,152.905701 174.845657,150.953430 176.948227,149.461731 
	C177.029343,154.532501 177.029343,159.142685 177.029343,163.701218 
	C185.894989,164.403458 189.481461,161.623734 190.528259,153.896500 
	C192.097046,151.916519 193.281601,150.039841 194.466171,148.163162 
z"/>
<path fill="#FBD92B" opacity="1.000000" stroke="none" 
	d="
M73.560661,62.904495 
	C73.161842,63.327942 72.204193,64.061783 71.786224,63.828537 
	C61.705276,58.202831 51.822666,62.596638 46.414009,69.127609 
	C45.288315,70.486893 44.526501,72.147537 43.197006,73.619995 
	C42.537735,73.134613 42.278458,72.698547 42.019180,72.262474 
	C42.336876,71.745872 42.926361,71.232216 42.932014,70.712219 
	C43.038620,60.906807 45.918484,56.212864 53.279823,53.996387 
	C60.336498,51.871643 68.024208,54.989044 72.756729,61.899670 
	C72.943932,62.173035 73.088715,62.475452 73.560661,62.904495 
z"/>
<path fill="#FED424" opacity="1.000000" stroke="none" 
	d="
M85.152969,160.989716 
	C85.152969,155.076813 85.152969,149.163895 85.152969,142.822006 
	C90.119987,142.822006 94.865242,142.631546 99.588326,142.873703 
	C104.662109,143.133820 106.826019,145.774551 106.561020,151.666031 
	C104.335304,153.243088 102.496384,155.304474 100.705276,155.263733 
	C94.638130,155.125732 89.732376,157.449371 85.152969,160.989716 
M91.231956,151.266281 
	C91.134483,151.512482 91.184380,151.726501 91.669304,152.745361 
	C94.372314,152.971237 97.111725,153.522202 99.756271,153.226044 
	C100.555695,153.136505 101.644951,150.660721 101.553658,149.350998 
	C101.493401,148.486526 99.649544,147.287827 98.450218,147.063889 
	C96.422127,146.685196 94.272034,146.959930 92.109505,146.959930 
	C91.828835,148.573883 91.610222,149.831009 91.231956,151.266281 
z"/>
<path fill="#FECE21" opacity="1.000000" stroke="none" 
	d="
M209.989456,156.817810 
	C209.989456,156.817810 209.553772,156.964539 208.971436,157.059204 
	C207.282974,158.636932 206.208145,160.144745 205.060913,161.595291 
	C204.136963,162.763519 203.125488,163.862503 202.152832,164.992188 
	C202.152817,157.866318 202.152817,150.740448 202.152817,143.313293 
	C209.657196,143.313293 217.064972,143.313293 224.460770,143.313293 
	C223.810013,146.099854 223.810013,146.099854 209.191772,147.313019 
	C209.128616,148.181229 209.038208,149.112274 208.999847,150.045456 
	C208.966782,150.849609 208.993011,151.656189 208.993011,153.023972 
	C212.522705,153.023972 215.801041,153.023972 219.382339,153.435730 
	C217.999557,154.232315 216.285751,154.525177 214.636093,155.028381 
	C213.052597,155.511444 211.535645,156.212524 209.989456,156.817810 
z"/>
<path fill="#F8C41F" opacity="1.000000" stroke="none" 
	d="
M219.108902,90.958900 
	C218.760101,89.779121 218.411301,88.599335 218.037445,87.334854 
	C224.815155,87.971016 229.669479,93.981163 228.977585,100.601089 
	C228.153931,108.481941 221.259537,114.277161 213.068146,113.668701 
	C213.182739,112.586227 213.296646,111.510124 214.043045,110.114655 
	C221.565094,103.068779 222.525467,98.988403 219.108902,90.958900 
z"/>
<path fill="#F9BF1F" opacity="1.000000" stroke="none" 
	d="
M154.015442,131.638687 
	C158.925354,129.564056 164.367767,128.273712 169.133804,125.720688 
	C172.726959,123.795937 175.453995,120.254288 178.820358,117.208549 
	C181.302765,122.309273 180.677856,127.526085 176.731064,131.485596 
	C172.757095,135.472382 167.522461,137.312775 161.768250,135.329910 
	C159.176163,134.436691 156.755646,133.045593 154.015442,131.638687 
z"/>
<path fill="#FCC521" opacity="1.000000" stroke="none" 
	d="
M35.050499,152.885666 
	C39.499542,152.885666 43.948582,152.885666 48.348289,152.885666 
	C49.392467,158.149536 45.889183,156.865677 43.587669,156.973999 
	C40.953472,157.097977 38.308960,157.002716 35.337021,157.002716 
	C35.337021,159.267075 35.337021,161.316895 35.337021,163.836838 
	C39.606373,163.836838 44.009415,163.836838 48.412460,163.836838 
	C48.747776,164.273880 49.083096,164.710922 49.418415,165.147964 
	C48.411335,166.094757 47.438629,167.813950 46.391491,167.860535 
	C40.457104,168.124619 34.504902,167.988342 28.007841,167.988342 
	C28.007841,163.766266 28.007841,159.841431 28.461428,155.453033 
	C30.960175,154.288193 33.005337,153.586929 35.050499,152.885666 
z"/>
<path fill="#FED424" opacity="1.000000" stroke="none" 
	d="
M158.828873,144.377457 
	C160.220291,146.014114 161.611725,147.650772 162.819000,149.878464 
	C161.004715,152.951569 159.374573,155.433624 157.814117,157.499176 
	C158.080719,150.070038 155.548737,146.008118 150.977615,146.003464 
	C146.647690,145.999054 144.054504,149.837830 143.885086,156.498367 
	C143.880875,156.663513 143.846878,156.827896 143.470001,157.163788 
	C142.283463,159.853027 141.453705,162.371140 140.623962,164.889236 
	C140.623962,164.889236 140.206528,164.676559 140.047104,164.075211 
	C139.665787,163.317444 139.443878,163.161011 139.221954,163.004578 
	C136.380737,159.208328 136.255707,155.085266 138.261597,150.238983 
	C139.481384,148.123962 140.189194,146.537384 140.897018,144.950821 
	C140.897018,144.950821 140.927673,144.942307 141.222168,145.262817 
	C147.083282,142.250763 152.884506,142.286713 158.828873,144.377457 
z"/>
<path fill="#FAC820" opacity="1.000000" stroke="none" 
	d="
M211.007492,96.995941 
	C210.914230,96.399857 210.820984,95.803764 210.393341,94.716293 
	C208.061920,91.790710 206.064850,89.356499 204.052338,86.949127 
	C204.036896,86.975975 204.093552,86.950584 204.008911,86.703659 
	C203.622406,86.361427 203.320557,86.266129 202.732178,86.047348 
	C201.950089,85.284019 201.454529,84.644188 201.300308,83.937775 
	C208.533875,78.423691 209.240738,76.037033 206.511292,67.801048 
	C206.205551,66.878487 206.189331,65.859970 206.038849,64.885956 
	C212.434418,70.369713 213.650177,75.308594 210.885544,83.721992 
	C210.656998,84.417549 211.334793,85.558182 211.843201,86.325172 
	C215.612366,92.011459 217.864334,97.821815 213.468246,104.642395 
	C212.929794,103.203606 212.461700,101.952835 211.985321,100.018921 
	C211.653854,98.555824 211.330673,97.775879 211.007492,96.995941 
z"/>
<path fill="#FDDF28" opacity="1.000000" stroke="none" 
	d="
M132.096909,57.753784 
	C137.527634,46.119289 150.626740,46.787220 154.836548,54.994034 
	C150.146301,58.346615 145.517990,61.044254 141.581299,63.338795 
	C138.799026,61.700420 135.447968,59.727100 132.096909,57.753784 
z"/>
<path fill="#E87421" opacity="1.000000" stroke="none" 
	d="
M132.000702,178.045731 
	C123.959854,178.354462 115.918999,178.663208 107.100037,178.733566 
	C101.944267,178.327606 97.545845,178.361786 93.197052,177.913925 
	C90.736847,177.660583 88.358185,176.615448 85.942795,175.926956 
	C86.212791,175.420258 86.482773,174.913559 86.389099,174.190536 
	C86.025436,173.974228 85.942818,173.946686 86.147629,174.337219 
	C86.897316,174.513657 87.442200,174.299561 87.987083,174.085464 
	C91.046600,174.710495 94.110428,175.894653 97.164963,175.871140 
	C119.434891,175.699646 141.703049,175.290680 163.971268,174.926331 
	C164.776230,174.913177 165.576004,174.584000 166.712189,174.150116 
	C167.977264,174.727585 168.908371,175.557007 169.441650,176.692642 
	C158.601151,177.001373 148.158020,176.952499 137.716324,177.053207 
	C135.808090,177.071609 133.905762,177.699280 132.000702,178.045731 
z"/>
<path fill="#EE8620" opacity="1.000000" stroke="none" 
	d="
M204.948944,124.868584 
	C197.366959,133.124847 187.500671,135.943237 177.154526,136.913986 
	C179.072372,134.195938 181.016312,131.440903 183.451828,128.339966 
	C193.080902,126.881577 201.617477,124.465347 207.820923,116.987633 
	C207.474136,118.379150 207.127335,119.770660 206.441635,121.710091 
	C205.718124,123.128204 205.333527,123.998390 204.948944,124.868584 
z"/>
<path fill="#F9BF1F" opacity="1.000000" stroke="none" 
	d="
M113.097786,184.422623 
	C117.168144,181.440216 121.413811,181.716400 126.043930,183.198822 
	C125.886620,189.568451 123.970787,194.577484 117.748817,197.224686 
	C113.669701,198.960190 112.335655,196.760437 112.112808,193.654449 
	C111.904633,190.752930 112.681725,187.780701 113.097786,184.422623 
z"/>
<path fill="#FAC820" opacity="1.000000" stroke="none" 
	d="
M140.764771,165.122269 
	C141.453705,162.371140 142.283463,159.853027 143.548737,157.539246 
	C146.255890,163.781067 149.033432,165.429932 153.758514,162.874588 
	C155.478119,161.944580 156.437943,159.609634 157.744415,157.915680 
	C159.374573,155.433624 161.004715,152.951569 162.874893,150.211685 
	C165.192505,156.444870 163.560013,163.062714 158.980698,166.340332 
	C153.778656,170.063644 146.111282,170.388199 140.764771,165.122269 
z"/>
<path fill="#FBC321" opacity="1.000000" stroke="none" 
	d="
M147.858078,185.010132 
	C148.229889,186.577835 148.962479,188.157562 148.910797,189.711166 
	C148.691528,196.300720 144.812714,198.952347 139.338470,195.528015 
	C135.461624,193.102890 132.619873,189.023026 129.722061,185.347366 
	C136.038055,185.011993 141.948074,185.011063 147.858078,185.010132 
z"/>
<path fill="#070809" opacity="1.000000" stroke="none" 
	d="
M132.074066,58.173466 
	C135.447968,59.727100 138.799026,61.700420 141.581299,63.338795 
	C145.517990,61.044254 150.146301,58.346615 154.971649,55.321609 
	C155.337692,54.982845 155.506668,54.971447 156.321396,54.957367 
	C162.651413,55.260181 166.995163,58.190968 170.937378,62.364033 
	C171.355133,63.446854 171.699966,64.216537 172.044815,64.986221 
	C171.300354,64.990295 170.555893,64.994370 169.210663,64.736198 
	C166.180084,62.154011 164.148087,59.038006 159.663605,60.100586 
	C158.888412,60.080383 158.443680,60.128246 157.998947,60.176109 
	C151.706223,58.468731 146.368210,61.962673 143.810471,69.091171 
	C140.039032,66.690453 136.166321,64.225258 132.128525,61.436684 
	C131.992691,60.273247 132.021957,59.433197 132.074066,58.173466 
z"/>
<path fill="#FCC521" opacity="1.000000" stroke="none" 
	d="
M29.589972,95.884735 
	C29.730751,95.169937 29.871531,94.455154 30.009775,93.376205 
	C30.007240,93.012047 29.998714,93.080788 30.315178,92.963837 
	C30.770842,92.226357 30.910042,91.605835 31.254110,90.731224 
	C30.746542,89.210182 30.313898,87.228134 29.266144,86.818184 
	C26.717590,85.821014 23.883457,85.553719 21.164354,84.992439 
	C21.365795,82.895592 21.567236,80.798744 22.336971,78.426147 
	C28.936146,79.435249 34.967030,80.720100 40.997910,82.004951 
	C40.470127,83.421844 40.108456,84.931244 39.381229,86.237061 
	C37.676510,89.298103 35.796730,92.261658 33.485199,95.628296 
	C31.851711,95.956200 30.720842,95.920464 29.589972,95.884735 
z"/>
<path fill="#FED424" opacity="1.000000" stroke="none" 
	d="
M40.999592,82.002502 
	C34.967030,80.720100 28.936146,79.435249 22.529217,78.070023 
	C25.374521,71.294060 32.698025,68.986954 41.616959,72.123596 
	C42.278458,72.698547 42.537735,73.134613 42.903183,73.801003 
	C42.596592,76.153664 42.183834,78.276009 41.472481,80.892105 
	C41.063271,81.573502 41.006016,81.776237 41.002125,81.994064 
	C41.002125,81.994064 41.001274,82.000053 40.999592,82.002502 
z"/>
<path fill="#FECE21" opacity="1.000000" stroke="none" 
	d="
M181.936951,116.409370 
	C186.496979,112.607269 191.478699,109.552635 195.622635,105.616096 
	C199.711105,101.732208 201.833405,96.635498 200.390167,90.339073 
	C201.814453,90.351135 202.880478,90.723564 203.980377,91.311172 
	C204.014221,91.526352 204.061890,91.959381 203.824982,92.247963 
	C203.505371,95.760826 204.255264,99.302559 203.171463,102.145157 
	C200.703735,108.617493 196.155045,113.647438 189.950089,117.066719 
	C187.826492,118.236954 185.920135,119.801437 183.914536,121.185799 
	C183.273590,119.714050 182.632645,118.242310 181.936951,116.409370 
z"/>
<path fill="#FBDA27" opacity="1.000000" stroke="none" 
	d="
M184.995377,67.164322 
	C184.364502,66.987885 183.717758,66.852470 183.109711,66.617088 
	C182.821121,66.505386 182.606400,66.202873 182.351654,65.981079 
	C188.276749,61.084679 191.919067,60.097733 199.867615,61.986969 
	C200.483643,67.362198 202.638351,72.269173 197.596954,75.954773 
	C196.905014,75.538177 196.475235,75.210381 195.970459,74.615753 
	C195.357986,73.864029 194.820496,73.379128 194.124863,72.584404 
	C190.976273,70.571167 187.985825,68.867744 184.995377,67.164322 
z"/>
<path fill="#EE8620" opacity="1.000000" stroke="none" 
	d="
M90.142288,128.112427 
	C93.203171,128.215088 96.264061,128.317749 99.681030,128.291260 
	C102.083176,132.385834 104.129242,136.609558 106.499580,141.502670 
	C98.990593,139.680588 91.868980,138.891388 88.594261,131.225861 
	C88.452354,130.893677 87.342628,130.974945 86.257996,130.840820 
	C85.832253,130.818039 85.568970,130.538467 85.792587,130.295868 
	C87.391571,129.406326 88.766930,128.759369 90.142288,128.112427 
z"/>
<path fill="#FBC321" opacity="1.000000" stroke="none" 
	d="
M183.922760,121.397110 
	C185.920135,119.801437 187.826492,118.236954 189.950089,117.066719 
	C196.155045,113.647438 200.703735,108.617493 203.171463,102.145157 
	C204.255264,99.302559 203.505371,95.760826 204.100189,92.378937 
	C205.061493,92.844833 205.510696,93.468338 205.959885,94.091843 
	C206.292969,94.857307 206.626053,95.622780 206.838837,97.024902 
	C206.602310,99.913544 206.924728,102.296890 206.296326,104.395531 
	C203.018311,115.343002 194.595078,120.007896 184.116562,121.988480 
	C184.116562,121.988480 183.930969,121.608429 183.922760,121.397110 
z"/>
<path fill="#FED424" opacity="1.000000" stroke="none" 
	d="
M197.859085,76.043571 
	C202.638351,72.269173 200.483643,67.362198 200.037292,62.310783 
	C201.944183,62.674347 203.846893,63.460705 205.894226,64.566513 
	C206.189331,65.859970 206.205551,66.878487 206.511292,67.801048 
	C209.240738,76.037033 208.533875,78.423691 201.037323,83.787994 
	C200.232254,83.137642 200.031540,82.570511 199.894089,81.644585 
	C199.257950,79.538383 198.558517,77.790977 197.859085,76.043571 
z"/>
<path fill="#FAAB1E" opacity="1.000000" stroke="none" 
	d="
M105.273926,126.994965 
	C108.424644,124.646965 111.758575,122.216217 115.394264,120.384369 
	C116.546875,119.803604 119.008636,120.277267 120.004326,121.201958 
	C123.869316,124.791283 128.277618,125.529839 133.517990,124.843292 
	C133.789825,125.869423 133.745941,126.783485 133.021729,128.007690 
	C127.946861,128.206009 123.552330,128.094147 119.157806,127.982285 
	C118.957336,126.686417 118.756874,125.390556 118.556412,124.094688 
	C118.210899,124.079941 117.865387,124.065193 117.519875,124.050446 
	C117.370506,125.103462 117.221138,126.156479 116.561340,127.602509 
	C112.807068,128.322845 109.563217,128.650177 106.319374,128.977524 
	C106.070885,128.366333 105.822395,127.755150 105.273926,126.994965 
z"/>
<path fill="#FECE21" opacity="1.000000" stroke="none" 
	d="
M35.028866,152.445557 
	C33.005337,153.586929 30.960175,154.288193 28.536999,154.992676 
	C28.158981,151.203781 28.158981,147.411652 28.158981,142.992203 
	C34.468895,142.992203 40.715927,142.881973 46.950073,143.115585 
	C47.845795,143.149139 48.679398,144.840469 50.565193,146.861389 
	C44.386417,146.861389 39.967751,146.861389 35.007233,146.861389 
	C35.007233,148.842300 35.007233,150.423874 35.028866,152.445557 
z"/>
<path fill="#FED424" opacity="1.000000" stroke="none" 
	d="
M176.867111,149.001160 
	C174.845657,150.953430 172.824203,152.905701 170.473114,154.927917 
	C170.093857,151.963470 170.044250,148.929108 170.440094,145.257904 
	C177.531235,144.530350 184.176910,144.439621 190.822571,144.348877 
	C191.940948,145.490891 193.059326,146.632919 194.321930,147.969055 
	C193.281601,150.039841 192.097046,151.916519 190.450043,153.532318 
	C188.979492,151.635361 188.219574,149.756821 186.909470,148.415771 
	C184.488815,145.937912 178.883072,146.414841 176.867111,149.001160 
z"/>
<path fill="#FED424" opacity="1.000000" stroke="none" 
	d="
M170.864471,62.050896 
	C166.995163,58.190968 162.651413,55.260181 156.574997,54.942394 
	C164.127075,49.405598 172.483292,50.656193 177.781860,58.809227 
	C175.339401,60.300404 173.101929,61.175652 170.864471,62.050896 
z"/>
<path fill="#FAB521" opacity="1.000000" stroke="none" 
	d="
M184.057846,122.362160 
	C194.595078,120.007896 203.018311,115.343002 206.296326,104.395531 
	C206.924728,102.296890 206.602310,99.913544 206.857971,97.342880 
	C207.649567,101.050056 208.301712,105.075890 208.570557,109.650269 
	C202.611465,119.083336 194.301437,123.526047 184.158051,124.990456 
	C184.105087,124.238914 184.052109,123.487381 184.057846,122.362160 
z"/>
<path fill="#F9BF1F" opacity="1.000000" stroke="none" 
	d="
M153.088074,185.413788 
	C157.277145,184.737289 161.607727,184.368805 166.391998,184.003036 
	C168.037430,186.313675 169.383621,188.559402 170.349335,190.958313 
	C170.770248,192.003860 170.410767,193.363556 170.405701,194.580582 
	C169.182098,194.472687 167.730087,194.753235 166.773727,194.190872 
	C162.185532,191.492813 157.731369,188.566833 153.088074,185.413788 
z"/>
<path fill="#FCCB20" opacity="1.000000" stroke="none" 
	d="
M119.823639,154.990387 
	C119.823639,157.790756 119.823639,160.591125 119.823639,163.836639 
	C124.272957,163.836639 128.345245,163.836639 132.417526,163.836639 
	C132.751282,164.273285 133.085052,164.709946 133.418823,165.146591 
	C132.407486,166.090439 131.436615,167.793533 130.378006,167.849930 
	C125.108597,168.130661 119.816109,167.978149 113.995659,167.978149 
	C113.995659,165.418289 113.995659,163.154083 114.397141,160.369965 
	C116.473625,158.230179 118.148628,156.610275 119.823639,154.990387 
z"/>
<path fill="#EE8822" opacity="1.000000" stroke="none" 
	d="
M29.849903,115.996719 
	C33.504005,117.804649 36.172504,120.244888 38.271309,124.063072 
	C39.936417,127.092247 43.823982,128.899765 46.657150,131.776871 
	C45.053696,132.875824 43.517845,133.447617 41.981995,134.019409 
	C36.116356,132.348969 34.063248,127.939331 33.750805,122.693779 
	C31.206947,121.503525 28.895752,120.422134 26.379482,118.821556 
	C27.399574,117.533821 28.624739,116.765266 29.849903,115.996719 
z"/>
<path fill="#FBC321" opacity="1.000000" stroke="none" 
	d="
M105.991730,188.863251 
	C102.561394,191.483810 99.217064,194.230164 95.658775,196.663635 
	C94.217003,197.649658 92.308754,197.953583 89.127579,199.105865 
	C91.402222,193.919708 93.012749,190.247726 95.290329,186.288361 
	C99.303009,186.952103 103.857269,183.666061 105.991730,188.863251 
z"/>
<path fill="#FAAB1E" opacity="1.000000" stroke="none" 
	d="
M184.066940,125.301102 
	C194.301437,123.526047 202.611465,119.083336 208.498718,110.095184 
	C208.577011,112.075844 208.343857,114.160118 207.965820,116.616013 
	C201.617477,124.465347 193.080902,126.881577 183.542084,127.991531 
	C183.419128,127.196579 183.697479,126.404167 184.066940,125.301102 
z"/>
<path fill="#F8C41F" opacity="1.000000" stroke="none" 
	d="
M85.075729,161.434143 
	C89.732376,157.449371 94.638130,155.125732 100.705276,155.263733 
	C102.496384,155.304474 104.335304,153.243088 106.490189,152.066345 
	C106.406784,156.059448 104.031372,157.941879 100.056641,157.987488 
	C97.591217,158.015793 95.125206,157.992752 92.075211,157.992752 
	C92.075211,161.164932 92.075211,164.195190 92.075211,167.608704 
	C89.487389,167.608704 87.474068,167.608704 84.998489,167.608704 
	C84.998489,165.734863 84.998489,163.806702 85.075729,161.434143 
z"/>
<path fill="#F8C41F" opacity="1.000000" stroke="none" 
	d="
M202.078339,165.429901 
	C203.125488,163.862503 204.136963,162.763519 205.060913,161.595291 
	C206.208145,160.144745 207.282974,158.636932 208.744492,157.095749 
	C209.099899,159.491882 209.099899,161.946136 209.099899,164.313187 
	C214.035904,166.112457 219.721848,162.609955 224.042297,166.279877 
	C223.995682,166.819214 223.949051,167.358536 223.902420,167.897858 
	C216.888596,167.897858 209.874359,167.922653 202.862289,167.811981 
	C202.565994,167.807281 202.289551,166.544357 202.078339,165.429901 
z"/>
<path fill="#FBDA27" opacity="1.000000" stroke="none" 
	d="
M119.893494,154.533279 
	C118.148628,156.610275 116.473625,158.230179 114.474579,159.922119 
	C114.092461,156.001450 114.232681,151.993256 113.923096,148.020126 
	C113.582191,143.644913 115.366974,142.211411 119.963356,143.361053 
	C119.963356,146.830948 119.963356,150.453568 119.893494,154.533279 
z"/>
<path fill="#F49D21" opacity="1.000000" stroke="none" 
	d="
M150.684067,127.980545 
	C151.257660,128.551239 151.526520,129.049454 151.888077,129.816315 
	C150.147568,129.480255 148.314346,128.875534 146.482727,128.271606 
	C146.035599,129.291412 145.586868,130.310410 144.563263,131.657425 
	C140.957748,132.312408 137.927078,132.639389 134.896423,132.966370 
	C135.850220,130.577667 136.804031,128.188950 137.836243,125.458130 
	C140.329071,124.781769 142.743484,124.447533 145.704636,124.358871 
	C146.817474,125.097458 147.383575,125.590462 147.949677,126.083458 
	C148.759552,126.691666 149.569443,127.299873 150.684067,127.980545 
z"/>
<path fill="#E87421" opacity="1.000000" stroke="none" 
	d="
M63.412445,134.944870 
	C62.371284,133.829208 61.696392,132.795685 61.299805,131.571396 
	C64.636513,134.357315 68.103065,136.480545 72.551834,135.537094 
	C75.419289,134.929016 78.186340,133.847427 81.248795,133.196320 
	C83.035774,133.264420 84.572327,133.114258 86.108887,132.964111 
	C86.951393,134.443817 87.793900,135.923523 89.077400,138.177780 
	C80.051285,137.139389 71.504463,139.978256 63.412445,134.944870 
z"/>
<path fill="#EE8822" opacity="1.000000" stroke="none" 
	d="
M132.340546,178.279602 
	C133.905762,177.699280 135.808090,177.071609 137.716324,177.053207 
	C148.158020,176.952499 158.601151,177.001373 169.510895,176.999451 
	C170.331268,177.450394 170.684555,177.900726 171.115295,178.632874 
	C158.355270,178.780930 145.517838,178.647202 132.340546,178.279602 
z"/>
<path fill="#F9BF1F" opacity="1.000000" stroke="none" 
	d="
M21.092319,85.362434 
	C23.883457,85.553719 26.717590,85.821014 29.266144,86.818184 
	C30.313898,87.228134 30.746542,89.210182 30.866550,90.866745 
	C30.182318,91.864494 30.090515,92.472641 29.998714,93.080788 
	C29.998714,93.080788 30.007240,93.012047 30.041592,93.010941 
	C28.972561,93.580666 27.869177,94.151505 26.404034,94.802414 
	C24.368279,91.832466 22.694283,88.782448 21.092319,85.362434 
z"/>
<path fill="#EE8620" opacity="1.000000" stroke="none" 
	d="
M134.588608,133.131500 
	C137.927078,132.639389 140.957748,132.312408 144.400024,131.978485 
	C142.696701,138.589828 136.976089,139.350357 130.840729,140.611359 
	C132.137543,137.853897 133.209167,135.575272 134.588608,133.131500 
z"/>
<path fill="#FAB521" opacity="1.000000" stroke="none" 
	d="
M106.317566,188.771591 
	C103.857269,183.666061 99.303009,186.952103 95.514038,186.004211 
	C95.363518,184.903214 95.656342,183.798965 96.053665,182.356781 
	C101.160622,182.019897 106.163071,182.020950 111.638428,182.035049 
	C110.288696,184.258713 108.466057,186.469330 106.317566,188.771591 
z"/>
<path fill="#FAB521" opacity="1.000000" stroke="none" 
	d="
M147.918365,184.668396 
	C141.948074,185.011063 136.038055,185.011993 129.674011,185.017700 
	C128.812439,184.254959 128.404892,183.487442 127.951828,182.389191 
	C134.049744,182.012390 140.193161,181.966324 146.746796,181.924927 
	C147.430893,182.728622 147.704758,183.527649 147.918365,184.668396 
z"/>
<path fill="#FAAB1E" opacity="1.000000" stroke="none" 
	d="
M201.848373,132.967468 
	C202.428085,132.439102 203.007812,131.910736 204.129425,131.090179 
	C206.487396,127.886414 208.303482,124.974861 210.119583,122.063309 
	C210.741806,120.850090 211.364029,119.636871 212.048798,118.301674 
	C214.472092,123.360703 214.472092,123.360703 211.160385,129.944717 
	C210.423218,130.526550 210.222321,130.796707 210.021423,131.066864 
	C210.021423,131.066864 210.006989,131.005737 209.814941,131.133667 
	C209.421539,131.527924 209.220169,131.794250 209.018814,132.060562 
	C209.018814,132.060562 209.000702,132.004257 208.623840,132.023651 
	C206.114105,132.351181 203.981232,132.659332 201.848373,132.967468 
z"/>
<path fill="#FBD92B" opacity="1.000000" stroke="none" 
	d="
M85.072311,62.638748 
	C84.203171,64.329643 83.305031,65.659142 82.673744,67.105148 
	C82.048218,68.537987 81.691673,70.088264 80.625458,71.790886 
	C80.755753,68.212746 73.636902,68.645073 76.827316,63.292030 
	C79.619041,61.148003 82.299377,59.409546 85.619789,61.536091 
	C85.659027,61.561226 85.575035,61.838558 85.498390,61.968586 
	C85.416847,62.106899 85.275475,62.209946 85.072311,62.638748 
z"/>
<path fill="#E87421" opacity="1.000000" stroke="none" 
	d="
M129.904877,132.978668 
	C127.985176,139.902008 126.490387,140.790802 119.999939,138.438034 
	C119.999939,137.003830 119.999939,135.403000 120.517075,133.395691 
	C123.991104,132.985687 126.947990,132.982178 129.904877,132.978668 
z"/>
<path fill="#F49D21" opacity="1.000000" stroke="none" 
	d="
M130.064728,132.684921 
	C126.947990,132.982178 123.991104,132.985687 120.592606,132.972931 
	C119.770241,131.545166 119.389481,130.133682 119.083267,128.352234 
	C123.552330,128.094147 127.946861,128.206009 132.714325,128.174438 
	C132.133041,129.484421 131.178802,130.937805 130.064728,132.684921 
z"/>
<path fill="#E87421" opacity="1.000000" stroke="none" 
	d="
M42.209404,134.339813 
	C43.517845,133.447617 45.053696,132.875824 46.850662,132.057281 
	C51.484039,133.116730 55.856304,134.422928 60.550312,135.883362 
	C54.726974,135.578461 48.581894,135.119339 42.209404,134.339813 
z"/>
<path fill="#EE8822" opacity="1.000000" stroke="none" 
	d="
M85.657028,176.039795 
	C88.358185,176.615448 90.736847,177.660583 93.197052,177.913925 
	C97.545845,178.361786 101.944267,178.327606 106.660576,178.730774 
	C99.201752,179.112183 91.404274,179.257980 83.276154,179.144684 
	C83.754097,177.974609 84.562675,177.063629 85.657028,176.039795 
z"/>
<path fill="#FBDA27" opacity="1.000000" stroke="none" 
	d="
M159.994049,60.168652 
	C164.148087,59.038006 166.180084,62.154011 168.838409,64.736687 
	C170.392624,68.084854 167.594650,66.547195 166.148468,67.508240 
	C164.416122,68.264175 163.219055,68.637047 162.011688,68.617996 
	C161.332275,65.540268 160.663162,62.854458 159.994049,60.168652 
z"/>
<path fill="#F49D21" opacity="1.000000" stroke="none" 
	d="
M106.417206,129.301041 
	C109.563217,128.650177 112.807068,128.322845 116.469131,127.992004 
	C116.911072,129.370422 116.934792,130.752350 116.499153,132.557678 
	C113.459480,133.297379 110.879173,133.613693 108.298859,133.930008 
	C107.704254,132.494858 107.109650,131.059708 106.417206,129.301041 
z"/>
<path fill="#EE8620" opacity="1.000000" stroke="none" 
	d="
M201.519928,133.086273 
	C203.981232,132.659332 206.114105,132.351181 208.650116,132.037201 
	C204.436218,137.437439 198.108841,138.370575 191.296494,138.253540 
	C194.594818,136.570724 197.893143,134.887909 201.519928,133.086273 
z"/>
<path fill="#FAB521" opacity="1.000000" stroke="none" 
	d="
M24.612898,97.192619 
	C25.098011,101.317528 25.235676,105.525650 25.229519,110.348000 
	C23.686102,111.323357 22.286505,111.684486 20.886908,112.045616 
	C21.219439,108.886818 21.344845,105.686775 21.962496,102.584747 
	C22.330690,100.735573 23.471802,99.040291 24.612898,97.192619 
z"/>
<path fill="#E87421" opacity="1.000000" stroke="none" 
	d="
M108.399673,134.269897 
	C110.879173,133.613693 113.459480,133.297379 116.437431,132.968430 
	C116.835068,134.767456 116.835068,136.579117 116.835068,138.739746 
	C114.947556,139.076172 113.067825,139.411209 110.831337,139.809830 
	C110.063148,138.096024 109.281822,136.352890 108.399673,134.269897 
z"/>
<path fill="#FCC521" opacity="1.000000" stroke="none" 
	d="
M170.937378,62.364037 
	C173.101929,61.175652 175.339401,60.300404 177.814087,59.162102 
	C178.914963,61.006256 179.778595,63.113461 181.079117,66.286629 
	C177.430481,65.887787 175.079773,65.630836 172.386948,65.180054 
	C171.699966,64.216537 171.355133,63.446854 170.937378,62.364037 
z"/>
<path fill="#FAB521" opacity="1.000000" stroke="none" 
	d="
M78.569778,183.094849 
	C81.417923,183.492004 83.956902,184.050415 86.783043,184.857681 
	C83.256020,186.641022 79.441849,188.175507 75.627678,189.709991 
	C75.397789,189.245819 75.167900,188.781647 74.938011,188.317490 
	C76.045540,186.630356 77.153076,184.943237 78.569778,183.094849 
z"/>
<path fill="#070809" opacity="1.000000" stroke="none" 
	d="
M218.871964,91.232704 
	C222.525467,98.988403 221.565094,103.068779 214.338089,109.847412 
	C214.149536,109.096558 214.021011,108.035507 214.490540,107.530846 
	C218.786438,102.913422 219.224884,97.354805 218.871964,91.232704 
z"/>
<path fill="#FEFBEA" opacity="1.000000" stroke="none" 
	d="
M190.867310,143.916565 
	C184.176910,144.439621 177.531235,144.530350 170.517120,144.809097 
	C170.405823,144.013550 170.705429,142.162048 170.914001,142.172241 
	C177.585434,142.498535 184.248077,143.004974 190.867310,143.916565 
z"/>
<path fill="#F49D21" opacity="1.000000" stroke="none" 
	d="
M20.932930,112.399422 
	C22.286505,111.684486 23.686102,111.323357 25.435646,110.686188 
	C27.125496,112.054558 28.465397,113.698967 29.827600,115.670052 
	C28.624739,116.765266 27.399574,117.533821 26.084198,118.609451 
	C24.322309,116.862091 22.650631,114.807663 20.932930,112.399422 
z"/>
<path fill="#070809" opacity="1.000000" stroke="none" 
	d="
M184.981384,67.507812 
	C187.985825,68.867744 190.976273,70.571167 193.739624,72.593658 
	C191.659714,72.983810 189.806900,73.054893 187.954102,73.125977 
	C186.867889,72.748108 185.781662,72.370239 184.346130,71.915009 
	C184.320343,70.508873 184.643875,69.180092 184.981384,67.507812 
z"/>
<path fill="#FEFBEA" opacity="1.000000" stroke="none" 
	d="
M158.875854,143.970627 
	C152.884506,142.286713 147.083282,142.250763 141.225601,145.247299 
	C146.365875,139.845901 151.163208,139.486542 158.875854,143.970627 
z"/>
<path fill="#F8C41F" opacity="1.000000" stroke="none" 
	d="
M210.449432,156.893616 
	C211.535645,156.212524 213.052597,155.511444 214.636093,155.028381 
	C216.285751,154.525177 217.999557,154.232315 219.839310,153.506683 
	C223.466537,152.415009 223.270721,154.348984 222.602356,156.969452 
	C218.674332,156.969452 214.791870,156.969452 210.449432,156.893616 
z"/>
<path fill="#F49D21" opacity="1.000000" stroke="none" 
	d="
M88.269119,172.717346 
	C88.485527,173.027725 88.556961,173.007355 88.168121,172.988800 
	C87.167130,173.295731 86.554977,173.621216 85.942818,173.946686 
	C85.942818,173.946686 86.025436,173.974228 86.040253,173.933411 
	C81.941605,174.744766 77.828148,175.596970 73.714684,176.449173 
	C73.590103,175.754944 73.465523,175.060715 73.340935,174.366486 
	C78.244858,173.713318 83.148781,173.060150 88.269119,172.717346 
z"/>
<path fill="#070707" opacity="1.000000" stroke="none" 
	d="
M209.672394,122.041794 
	C208.303482,124.974861 206.487396,127.886414 204.337402,130.869080 
	C204.315750,129.174545 204.627991,127.408905 204.944580,125.255920 
	C205.333527,123.998390 205.718124,123.128204 206.321823,122.060928 
	C207.435684,121.915993 208.330460,121.968132 209.672394,122.041794 
z"/>
<path fill="#070809" opacity="1.000000" stroke="none" 
	d="
M206.178131,93.909485 
	C205.510696,93.468338 205.061493,92.844833 204.337097,92.090363 
	C204.061890,91.959381 204.014221,91.526352 203.994568,90.894226 
	C204.005859,89.148834 204.036819,88.035568 204.067780,86.922287 
	C206.064850,89.356499 208.061920,91.790710 210.121490,94.576996 
	C208.921478,94.528435 207.658920,94.127785 206.178131,93.909485 
z"/>
<path fill="#070809" opacity="1.000000" stroke="none" 
	d="
M162.022003,69.009918 
	C163.219055,68.637047 164.416122,68.264175 165.902100,67.761002 
	C166.729446,68.150192 167.267868,68.669670 167.903214,69.591019 
	C168.000153,69.992874 167.895905,70.095428 167.508240,70.065773 
	C164.091400,71.004990 161.062225,71.973869 158.019745,72.971680 
	C158.006424,73.000618 158.059616,72.965469 158.091705,72.664230 
	C158.768494,71.605804 159.413162,70.848625 160.349518,70.034088 
	C161.095596,69.658325 161.550003,69.339920 162.003571,69.012711 
	C162.002731,69.003914 162.022003,69.009918 162.022003,69.009918 
z"/>
<path fill="#EE8620" opacity="1.000000" stroke="none" 
	d="
M86.060646,132.654602 
	C84.572327,133.114258 83.035774,133.264420 81.411140,132.968079 
	C81.887207,132.043259 82.451340,131.564926 83.343292,131.049194 
	C84.303741,130.854019 84.936356,130.696243 85.568970,130.538467 
	C85.568970,130.538467 85.832253,130.818039 85.964050,130.957687 
	C86.068039,131.513260 86.040222,131.929184 86.060646,132.654602 
z"/>
<path fill="#FEFBEA" opacity="1.000000" stroke="none" 
	d="
M140.567825,145.056534 
	C140.189194,146.537384 139.481384,148.123962 138.454529,149.869568 
	C138.836533,148.406494 139.537582,146.784363 140.567825,145.056534 
z"/>
<path fill="#070809" opacity="1.000000" stroke="none" 
	d="
M210.806763,97.212074 
	C211.330673,97.775879 211.653854,98.555824 211.904968,99.669357 
	C211.423965,99.144699 211.015015,98.286453 210.806763,97.212074 
z"/>
<path fill="#070809" opacity="1.000000" stroke="none" 
	d="
M169.856857,70.893723 
	C170.047989,71.117264 170.002701,71.503433 169.654663,71.749680 
	C168.655365,71.995934 168.004105,71.995934 167.165085,71.995934 
	C167.461197,71.225861 167.678558,70.660645 167.895905,70.095428 
	C167.895905,70.095428 168.000153,69.992874 168.052582,69.941193 
	C168.625244,70.149742 169.145493,70.409966 169.856857,70.893723 
z"/>
<path fill="#070809" opacity="1.000000" stroke="none" 
	d="
M111.929825,55.552139 
	C111.554504,55.844566 111.110161,55.896317 110.335022,55.881088 
	C110.623077,55.646564 111.241943,55.479015 111.929825,55.552139 
z"/>
<path fill="#F9BF1F" opacity="1.000000" stroke="none" 
	d="
M152.067780,130.313507 
	C152.496323,130.289917 153.019882,130.547760 153.631485,131.096497 
	C153.200623,131.123230 152.681702,130.859085 152.067780,130.313507 
z"/>
<path fill="#FAC820" opacity="1.000000" stroke="none" 
	d="
M139.193176,163.243195 
	C139.443878,163.161011 139.665787,163.317444 140.067688,163.841873 
	C139.886581,163.967194 139.525497,163.724503 139.193176,163.243195 
z"/>
<path fill="#000000" opacity="1.000000" stroke="none" 
	d="
M172.180130,183.362000 
	C172.323563,183.291519 172.629547,183.378403 173.032623,183.713242 
	C172.845627,183.852615 172.583298,183.705338 172.180130,183.362000 
z"/>
<path fill="#EE8620" opacity="1.000000" stroke="none" 
	d="
M210.280426,130.989105 
	C210.222321,130.796707 210.423218,130.526550 210.846725,130.131683 
	C210.892685,130.308441 210.716049,130.609894 210.280426,130.989105 
z"/>
<path fill="#EE8620" opacity="1.000000" stroke="none" 
	d="
M209.276672,131.986862 
	C209.220169,131.794250 209.421539,131.527924 209.845490,131.140976 
	C209.890244,131.317947 209.712387,131.615555 209.276672,131.986862 
z"/>
<path fill="#FDE626" opacity="1.000000" stroke="none" 
	d="
M167.508240,70.065773 
	C167.678558,70.660645 167.461197,71.225861 167.165085,71.995934 
	C168.004105,71.995934 168.655365,71.995934 169.633041,71.942886 
	C171.464462,73.509682 172.696808,75.586304 174.519318,76.674309 
	C185.310211,83.116188 188.211777,98.468552 175.902252,106.084831 
	C174.926575,106.688507 173.854935,107.384995 173.258240,108.314583 
	C167.813187,116.797722 159.097153,120.454430 150.339249,124.091400 
	C149.605362,124.396172 149.000885,125.012512 148.142975,125.783775 
	C147.383575,125.590462 146.817474,125.097458 146.107147,124.362381 
	C147.435379,121.832321 148.907867,119.544350 150.383362,117.258286 
	C147.325668,114.928528 145.872665,107.157669 148.430542,103.094490 
	C152.669189,104.326469 156.249313,105.742432 159.728226,107.118362 
	C151.361359,93.359238 133.244431,96.051903 127.044853,108.893677 
	C124.130432,108.658295 123.421242,108.034599 125.077713,105.857857 
	C127.610954,102.528954 131.028946,99.863411 134.142715,96.993706 
	C134.854385,96.337814 136.099640,96.188866 136.668503,95.467072 
	C137.506683,94.403564 138.392120,93.033424 138.386520,91.797844 
	C138.383835,91.204338 136.408005,90.169785 135.288803,90.116928 
	C132.116608,89.967140 128.999313,90.211136 126.911453,86.976997 
	C126.687248,86.629692 124.477173,87.288177 123.411995,87.881615 
	C122.911949,88.160202 123.013474,89.419975 122.723251,90.190201 
	C121.169258,94.314262 118.117134,97.056770 113.792320,96.812294 
	C109.889816,96.591690 106.644547,94.421158 105.862587,89.953835 
	C105.763786,89.389389 105.275368,88.893135 104.967453,88.365280 
	C104.439980,88.449669 103.912506,88.534058 103.385033,88.618454 
	C103.734329,91.107773 104.083618,93.597099 104.430603,96.069946 
	C100.563103,95.900322 97.043571,88.230705 96.988998,78.976532 
	C98.487000,76.251205 99.685257,73.989426 101.502907,72.467323 
	C110.749016,64.724617 126.458054,66.346268 135.218338,77.482231 
	C137.785919,80.746109 142.322021,82.461403 145.955887,84.886459 
	C147.832001,85.815269 149.708130,86.744087 151.584244,87.672897 
	C152.022980,85.716652 152.834854,83.754654 152.804825,81.805626 
	C152.768372,79.437798 151.875244,77.097145 151.611908,74.716064 
	C150.969238,68.905106 153.559708,64.470062 157.925095,60.506516 
	C158.443680,60.128246 158.888412,60.080383 159.663605,60.100586 
	C160.663162,62.854458 161.332275,65.540268 162.011688,68.617996 
	C162.022003,69.009918 162.002731,69.003914 161.715973,69.052879 
	C160.972092,69.431709 160.514969,69.761574 160.057831,70.091438 
	C159.413162,70.848625 158.768494,71.605804 157.849945,72.721016 
	C157.279144,73.388397 156.982208,73.697754 156.685272,74.007111 
	C156.797119,74.108391 156.908981,74.209679 157.020844,74.310974 
	C157.358246,73.854897 157.695663,73.398827 158.033081,72.942749 
	C161.062225,71.973869 164.091400,71.004990 167.508240,70.065773 
z"/>
<path fill="#FDE026" opacity="1.000000" stroke="none" 
	d="
M68.528900,101.987076 
	C67.666969,103.451767 66.381004,104.916222 64.532394,106.688538 
	C59.843296,105.685257 55.240929,105.122665 51.708645,102.876938 
	C47.104240,99.949585 43.348301,95.687691 39.227264,92.000053 
	C40.367466,90.641273 41.647907,89.373718 42.607925,87.897736 
	C43.543816,86.458855 44.731636,84.833778 44.805515,83.243820 
	C45.157223,75.674957 48.489174,70.040031 55.384075,67.033043 
	C62.581940,63.893929 69.474648,65.153755 75.523003,70.133415 
	C77.254219,71.558739 78.535950,73.529999 80.082596,75.599266 
	C77.713165,75.457336 75.261047,75.062294 72.860764,74.460533 
	C61.689453,71.659813 52.590099,78.868927 53.004086,90.241089 
	C53.260857,97.294693 59.238964,101.944611 68.528900,101.987076 
z"/>
<path fill="#0A0A08" opacity="1.000000" stroke="none" 
	d="
M145.971497,84.536629 
	C142.322021,82.461403 137.785919,80.746109 135.218338,77.482231 
	C126.458054,66.346268 110.749016,64.724617 101.502907,72.467323 
	C99.685257,73.989426 98.487000,76.251205 96.978149,78.525360 
	C93.961517,81.567268 90.969818,84.255646 87.995148,86.928726 
	C88.207191,86.106575 88.211494,84.603790 88.917709,83.589912 
	C93.981667,76.319786 98.032433,68.230835 107.263313,64.759315 
	C117.336800,60.970921 125.606537,63.947979 132.962433,70.586555 
	C137.610001,74.780899 141.665848,79.630890 145.971497,84.536629 
z"/>
<path fill="#0A0A08" opacity="1.000000" stroke="none" 
	d="
M127.393867,108.891266 
	C133.244431,96.051903 151.361359,93.359238 159.728226,107.118362 
	C156.249313,105.742432 152.669189,104.326469 148.712814,102.874786 
	C141.752670,100.438354 136.369415,103.662430 130.949539,106.601677 
	C129.804077,107.222862 128.807861,108.119247 127.393867,108.891266 
z"/>
<path fill="#FDE626" opacity="1.000000" stroke="none" 
	d="
M109.341156,106.457832 
	C107.565422,104.018448 106.095032,101.730011 104.624634,99.441574 
	C105.356941,98.982620 106.089256,98.523674 106.821564,98.064728 
	C108.368034,100.582520 109.914497,103.100311 111.460960,105.618103 
	C110.856133,105.948326 110.251305,106.278549 109.341156,106.457832 
z"/>
<path fill="#070809" opacity="1.000000" stroke="none" 
	d="
M127.968765,63.063095 
	C128.374100,63.428535 128.577866,64.020737 128.781647,64.612938 
	C128.441360,64.473335 128.101074,64.333733 127.568459,63.973949 
	C127.506485,63.599133 127.636848,63.444492 127.968765,63.063095 
z"/>
<path fill="#FDDF28" opacity="1.000000" stroke="none" 
	d="
M85.792587,130.295868 
	C84.936356,130.696243 84.303741,130.854019 83.219719,130.692993 
	C74.919090,127.587585 67.069870,124.800964 59.220642,122.014343 
	C60.767338,120.666908 62.398567,119.401703 63.824207,117.936470 
	C64.511971,117.229599 64.999435,116.196091 65.258904,115.225311 
	C67.129852,108.225334 71.348122,103.403824 78.578217,100.904114 
	C78.010239,102.348679 77.264870,104.017036 76.113968,105.329887 
	C71.252258,110.875755 71.815269,116.793427 77.994759,120.935387 
	C81.696388,123.416519 85.673569,125.486542 89.834595,127.926880 
	C88.766930,128.759369 87.391571,129.406326 85.792587,130.295868 
z"/>
<path fill="#FED424" opacity="1.000000" stroke="none" 
	d="
M39.036041,92.343483 
	C43.348301,95.687691 47.104240,99.949585 51.708645,102.876938 
	C55.240929,105.122665 59.843296,105.685257 64.385651,106.997025 
	C64.108124,108.945877 63.414696,110.894104 62.187698,112.807953 
	C58.675358,111.969276 55.562672,111.481796 52.747002,110.291634 
	C47.624866,108.126556 42.679146,105.544113 37.659813,103.135818 
	C38.054813,99.652847 38.449814,96.169884 39.036041,92.343483 
z"/>
<path fill="#FECE21" opacity="1.000000" stroke="none" 
	d="
M59.125427,122.426201 
	C67.069870,124.800964 74.919090,127.587585 82.891891,130.730408 
	C82.451340,131.564926 81.887207,132.043259 81.160721,132.749817 
	C78.186340,133.847427 75.419289,134.929016 72.551834,135.537094 
	C68.103065,136.480545 64.636513,134.357315 61.265480,131.256760 
	C60.311977,128.367950 59.671093,125.603004 59.125427,122.426201 
z"/>
<path fill="#FCC521" opacity="1.000000" stroke="none" 
	d="
M37.743649,103.489380 
	C42.679146,105.544113 47.624866,108.126556 52.747002,110.291634 
	C55.562672,111.481796 58.675358,111.969276 61.880760,112.999435 
	C60.958652,114.426468 59.809921,115.627655 58.055267,116.718765 
	C56.182102,116.370956 54.827175,116.342896 53.663925,115.856453 
	C50.071430,114.354179 46.552044,112.677094 43.004265,111.067902 
	C41.278671,108.659576 39.553078,106.251259 37.743649,103.489380 
z"/>
<path fill="#FAB521" opacity="1.000000" stroke="none" 
	d="
M42.642242,111.032173 
	C46.552044,112.677094 50.071430,114.354179 53.663925,115.856453 
	C54.827175,116.342896 56.182102,116.370956 57.746029,116.856148 
	C57.586212,118.000847 57.129723,118.898087 55.970825,119.905777 
	C49.787712,119.033989 44.307003,118.051758 38.826294,117.069527 
	C38.457592,115.223892 38.088886,113.378265 37.613068,110.996445 
	C39.529732,110.996445 40.904976,110.996445 42.642242,111.032173 
z"/>
<path fill="#F49D21" opacity="1.000000" stroke="none" 
	d="
M33.830574,102.984322 
	C36.566956,106.375221 37.039726,109.909294 33.562939,114.902527 
	C31.747627,110.848991 30.243223,107.489716 29.055271,103.678528 
	C30.858004,103.145859 32.344288,103.065086 33.830574,102.984322 
z"/>
<path fill="#EE8822" opacity="1.000000" stroke="none" 
	d="
M55.765968,122.006149 
	C55.509590,122.796921 55.253212,123.587685 54.466980,124.690933 
	C50.572418,125.024490 47.207722,125.045555 43.843021,125.066620 
	C42.557274,123.617676 41.271526,122.168739 40.340340,120.444260 
	C45.718590,120.781204 50.742279,121.393677 55.765968,122.006149 
z"/>
<path fill="#F49D21" opacity="1.000000" stroke="none" 
	d="
M55.866367,121.688995 
	C50.742279,121.393677 45.718590,120.781204 40.297001,120.108749 
	C39.578804,119.278130 39.258511,118.507484 38.882256,117.403183 
	C44.307003,118.051758 49.787712,119.033989 55.688461,120.033524 
	C56.061260,120.491173 56.014015,120.931511 55.866367,121.688995 
z"/>
<path fill="#E87421" opacity="1.000000" stroke="none" 
	d="
M44.002960,125.379982 
	C47.207722,125.045555 50.572418,125.024490 54.387848,124.997986 
	C55.166718,126.393379 55.494858,127.794189 55.915855,129.591400 
	C51.179394,130.440903 47.535458,128.516022 44.002960,125.379982 
z"/>
<path fill="#FAB521" opacity="1.000000" stroke="none" 
	d="
M33.895565,102.550949 
	C32.344288,103.065086 30.858004,103.145859 28.930088,103.316360 
	C28.488459,103.406097 28.497082,103.359024 28.637115,102.894638 
	C28.807186,101.516182 28.837223,100.602104 28.867260,99.688034 
	C28.951303,98.578468 29.035349,97.468903 29.354683,96.122040 
	C30.720842,95.920464 31.851711,95.956200 33.406937,95.990509 
	C33.874382,98.031921 33.917469,100.074753 33.895565,102.550949 
z"/>
<path fill="#FDDF28" opacity="1.000000" stroke="none" 
	d="
M87.034996,99.659279 
	C86.381271,99.919449 85.489021,99.941513 84.151550,99.922043 
	C84.736382,99.727394 85.766426,99.574280 87.034996,99.659279 
z"/>
<path fill="#F49D21" opacity="1.000000" stroke="none" 
	d="
M28.634018,99.924736 
	C28.837223,100.602104 28.807186,101.516182 28.651297,102.875412 
	C28.483885,102.267525 28.442329,101.214478 28.634018,99.924736 
z"/>
<path fill="#FCC521" opacity="1.000000" stroke="none" 
	d="
M41.164486,81.899620 
	C41.006016,81.776237 41.063271,81.573502 41.275764,81.265305 
	C41.591454,81.382538 41.574524,81.602676 41.164486,81.899620 
z"/>
<path fill="#04060A" opacity="1.000000" stroke="none" 
	d="
M204.052338,86.949135 
	C204.036819,88.035568 204.005859,89.148834 203.960709,90.679047 
	C202.880478,90.723564 201.814453,90.351135 200.396179,89.934036 
	C199.021225,88.473267 197.407623,87.180115 197.082779,85.618820 
	C195.955750,80.201973 193.042282,76.329384 188.104187,73.433609 
	C189.806900,73.054893 191.659714,72.983810 193.897766,72.903473 
	C194.820496,73.379128 195.357986,73.864029 195.975098,74.990555 
	C197.313416,77.755905 198.572113,79.879639 199.830811,82.003372 
	C200.031540,82.570511 200.232254,83.137642 200.695969,83.854568 
	C201.454529,84.644188 201.950089,85.284019 202.885483,86.210793 
	C203.550903,86.700394 203.806992,86.851341 204.093552,86.950584 
	C204.093552,86.950584 204.036896,86.975975 204.052338,86.949135 
z"/>
<path fill="#04060A" opacity="1.000000" stroke="none" 
	d="
M86.147629,174.337219 
	C86.554977,173.621216 87.167130,173.295731 88.165855,172.951721 
	C88.457069,173.124557 88.361702,173.315933 88.126709,173.796387 
	C87.442200,174.299561 86.897316,174.513657 86.147629,174.337219 
z"/>
<path fill="#05070C" opacity="1.000000" stroke="none" 
	d="
M176.948227,149.461731 
	C178.883072,146.414841 184.488815,145.937912 186.909470,148.415771 
	C188.219574,149.756821 188.979492,151.635361 190.065811,153.635605 
	C189.481461,161.623734 185.894989,164.403458 177.029343,163.701218 
	C177.029343,159.142685 177.029343,154.532501 176.948227,149.461731 
z"/>
<path fill="#0A0A08" opacity="1.000000" stroke="none" 
	d="
M91.391609,151.088120 
	C91.610222,149.831009 91.828835,148.573883 92.109505,146.959930 
	C94.272034,146.959930 96.422127,146.685196 98.450218,147.063889 
	C99.649544,147.287827 101.493401,148.486526 101.553658,149.350998 
	C101.644951,150.660721 100.555695,153.136505 99.756271,153.226044 
	C97.111725,153.522202 94.372314,152.971237 91.631439,152.123047 
	C91.593575,151.500732 91.391609,151.088120 91.391609,151.088120 
z"/>
<path fill="#F8C41F" opacity="1.000000" stroke="none" 
	d="
M91.311783,151.177200 
	C91.391609,151.088120 91.593575,151.500732 91.487610,151.704559 
	C91.184380,151.726501 91.134483,151.512482 91.311783,151.177200 
z"/>
<path fill="#05070C" opacity="1.000000" stroke="none" 
	d="
M157.814117,157.499176 
	C156.437943,159.609634 155.478119,161.944580 153.758514,162.874588 
	C149.033432,165.429932 146.255890,163.781067 143.905518,157.368103 
	C143.846878,156.827896 143.880875,156.663513 143.885086,156.498367 
	C144.054504,149.837830 146.647690,145.999054 150.977615,146.003464 
	C155.548737,146.008118 158.080719,150.070038 157.814117,157.499176 
z"/>
<path fill="#070809" opacity="1.000000" stroke="none" 
	d="
M204.008911,86.703659 
	C203.806992,86.851341 203.550903,86.700394 203.172012,86.334274 
	C203.320557,86.266129 203.622406,86.361427 204.008911,86.703659 
z"/>
<path fill="#070707" opacity="1.000000" stroke="none" 
	d="
M30.315178,92.963837 
	C30.090515,92.472641 30.182318,91.864494 30.661682,91.120834 
	C30.910042,91.605835 30.770842,92.226357 30.315178,92.963837 
z"/>
<path fill="#070809" opacity="1.000000" stroke="none" 
	d="
M199.894089,81.644585 
	C198.572113,79.879639 197.313416,77.755905 196.050079,75.257370 
	C196.475235,75.210381 196.905014,75.538177 197.596954,75.954773 
	C198.558517,77.790977 199.257950,79.538383 199.894089,81.644585 
z"/>
<path fill="#FBDA27" opacity="1.000000" stroke="none" 
	d="
M160.349518,70.034088 
	C160.514969,69.761574 160.972092,69.431709 161.716812,69.061676 
	C161.550003,69.339920 161.095596,69.658325 160.349518,70.034088 
z"/>
<path fill="#FDE828" opacity="1.000000" stroke="none" 
	d="
M158.019745,72.971687 
	C157.695663,73.398827 157.358246,73.854897 157.020844,74.310974 
	C156.908981,74.209679 156.797119,74.108391 156.685272,74.007111 
	C156.982208,73.697754 157.279144,73.388397 157.817841,73.022263 
	C158.059616,72.965469 158.006424,73.000618 158.019745,72.971687 
z"/>
</svg>